<svg width="35" height="20" viewBox="0 0 35 20" fill="none" xmlns="http://www.w3.org/2000/svg">
<path d="M12.1154 0C12.4724 0 12.8148 0.131696 13.0673 0.366116C13.3197 0.600537 13.4615 0.918479 13.4615 1.25V18.75C13.4615 19.0815 13.3197 19.3995 13.0673 19.6339C12.8148 19.8683 12.4724 20 12.1154 20H10.7692C10.4122 20 10.0698 19.8683 9.81736 19.6339C9.5649 19.3995 9.42308 19.0815 9.42308 18.75V1.25C9.42308 0.918479 9.5649 0.600537 9.81736 0.366116C10.0698 0.131696 10.4122 0 10.7692 0H12.1154ZM2.69231 0C3.04933 0 3.39173 0.131696 3.64418 0.366116C3.89664 0.600537 4.03846 0.918479 4.03846 1.25V18.75C4.03846 19.44 3.43538 20 2.69231 20H1.34615C0.989131 20 0.646731 19.8683 0.394278 19.6339C0.141825 19.3995 -2.38419e-07 19.0815 -2.38419e-07 18.75V1.25C-2.38419e-07 0.918479 0.141825 0.600537 0.394278 0.366116C0.646731 0.131696 0.989131 0 1.34615 0H2.69231ZM29.9654 0.516667C32.209 -0.671667 35 0.833333 35 3.23333V16.77C35 19.17 32.209 20.675 29.9654 19.4833L17.2074 12.715C14.9459 11.515 14.9459 8.48833 17.2074 7.28833L29.9654 0.516667Z" fill="black"/>
</svg>
