<svg width="30" height="20" viewBox="0 0 30 20" fill="none" xmlns="http://www.w3.org/2000/svg">
<path d="M19.6154 0C19.3094 0 19.0159 0.131696 18.7995 0.366116C18.5831 0.600537 18.4615 0.918479 18.4615 1.25V18.75C18.4615 19.0815 18.5831 19.3995 18.7995 19.6339C19.0159 19.8683 19.3094 20 19.6154 20H20.7692C21.0753 20 21.3687 19.8683 21.5851 19.6339C21.8015 19.3995 21.9231 19.0815 21.9231 18.75V1.25C21.9231 0.918479 21.8015 0.600537 21.5851 0.366116C21.3687 0.131696 21.0753 0 20.7692 0H19.6154ZM27.6923 0C27.3863 0 27.0928 0.131696 26.8764 0.366116C26.66 0.600537 26.5385 0.918479 26.5385 1.25V18.75C26.5385 19.44 27.0554 20 27.6923 20H28.8462C29.1522 20 29.4457 19.8683 29.662 19.6339C29.8784 19.3995 30 19.0815 30 18.75V1.25C30 0.918479 29.8784 0.600537 29.662 0.366116C29.4457 0.131696 29.1522 0 28.8462 0H27.6923ZM4.31538 0.516667C2.39231 -0.671667 0 0.833333 0 3.23333V16.77C0 19.17 2.39231 20.675 4.31538 19.4833L15.2508 12.715C17.1892 11.515 17.1892 8.48833 15.2508 7.28833L4.31538 0.516667Z" fill="black"/>
</svg>
