<svg width="50" height="50" viewBox="0 0 50 50" fill="none" xmlns="http://www.w3.org/2000/svg">
<circle cx="25" cy="25" r="25" fill="#B77F3F"/>
<path d="M31.6667 35C30.75 35 29.9655 34.7205 29.3133 34.1614C28.6611 33.6024 28.3344 32.9295 28.3333 32.1429V17.8571C28.3333 17.0714 28.66 16.399 29.3133 15.84C29.9667 15.281 30.7511 15.001 31.6667 15C32.5822 14.9991 33.3672 15.279 34.0217 15.84C34.6761 16.401 35.0022 17.0733 35 17.8571V32.1429C35 32.9286 34.6739 33.6014 34.0217 34.1614C33.3694 34.7214 32.5844 35.0009 31.6667 35ZM18.3333 35C17.4167 35 16.6322 34.7205 15.98 34.1614C15.3278 33.6024 15.0011 32.9295 15 32.1429V17.8571C15 17.0714 15.3267 16.399 15.98 15.84C16.6333 15.281 17.4178 15.001 18.3333 15C19.2489 14.9991 20.0339 15.279 20.6883 15.84C21.3428 16.401 21.6689 17.0733 21.6667 17.8571V32.1429C21.6667 32.9286 21.3406 33.6014 20.6883 34.1614C20.0361 34.7214 19.2511 35.0009 18.3333 35Z" fill="black"/>
</svg>
