<svg width="326" height="165" viewBox="0 0 326 165" fill="none" xmlns="http://www.w3.org/2000/svg">
<rect x="5.75" y="0.75" width="145.5" height="22.5" rx="9.25" fill="#FF6F00" stroke="black" stroke-width="1.5"/>
<path d="M38.8267 19H36.4972L41.7315 4.45455H44.267L49.5014 19H47.1719L43.0597 7.09659H42.946L38.8267 19ZM39.2173 13.304H46.7741V15.1506H39.2173V13.304ZM55.8402 8.09091V9.79545H49.8814V8.09091H55.8402ZM51.4794 5.47727H53.603V15.7969C53.603 16.2088 53.6645 16.5189 53.7876 16.7273C53.9107 16.9309 54.0694 17.0705 54.2635 17.1463C54.4624 17.2173 54.6778 17.2528 54.9098 17.2528C55.0803 17.2528 55.2294 17.241 55.3572 17.2173C55.4851 17.1937 55.5845 17.1747 55.6555 17.1605L56.0391 18.9148C55.916 18.9621 55.7408 19.0095 55.5135 19.0568C55.2862 19.1089 55.0021 19.1373 54.6612 19.142C54.1025 19.1515 53.5817 19.0521 53.0987 18.8438C52.6158 18.6354 52.2251 18.3134 51.9268 17.8778C51.6286 17.4422 51.4794 16.8954 51.4794 16.2372V5.47727ZM58.1893 19V8.09091H60.2418V9.82386H60.3555C60.5543 9.23674 60.9047 8.77509 61.4066 8.43892C61.9132 8.09801 62.4862 7.92756 63.1254 7.92756C63.2579 7.92756 63.4142 7.93229 63.5941 7.94176C63.7788 7.95123 63.9232 7.96307 64.0273 7.97727V10.0085C63.9421 9.98485 63.7906 9.95881 63.5728 9.9304C63.355 9.89725 63.1372 9.88068 62.9194 9.88068C62.4175 9.88068 61.9701 9.98722 61.5771 10.2003C61.1888 10.4086 60.881 10.6998 60.6538 11.0739C60.4265 11.4432 60.3129 11.8646 60.3129 12.3381V19H58.1893ZM65.8651 19V8.09091H67.9886V19H65.8651ZM66.9375 6.40767C66.5682 6.40767 66.2509 6.28456 65.9858 6.03835C65.7254 5.7874 65.5952 5.48911 65.5952 5.14347C65.5952 4.79309 65.7254 4.49479 65.9858 4.24858C66.2509 3.99763 66.5682 3.87216 66.9375 3.87216C67.3068 3.87216 67.6217 3.99763 67.8821 4.24858C68.1473 4.49479 68.2798 4.79309 68.2798 5.14347C68.2798 5.48911 68.1473 5.7874 67.8821 6.03835C67.6217 6.28456 67.3068 6.40767 66.9375 6.40767ZM71.016 19V4.45455H73.1396V9.85938H73.2674C73.3905 9.6321 73.5681 9.36932 73.8001 9.07102C74.0321 8.77273 74.354 8.51231 74.766 8.28977C75.1779 8.0625 75.7224 7.94886 76.3995 7.94886C77.2802 7.94886 78.0662 8.1714 78.7575 8.61648C79.4487 9.06155 79.9909 9.70312 80.3839 10.5412C80.7816 11.3793 80.9805 12.3878 80.9805 13.5668C80.9805 14.7457 80.784 15.7566 80.391 16.5994C79.998 17.4375 79.4582 18.0838 78.7717 18.5384C78.0851 18.9882 77.3015 19.2131 76.4208 19.2131C75.7579 19.2131 75.2158 19.1018 74.7944 18.8793C74.3777 18.6567 74.051 18.3963 73.8143 18.098C73.5775 17.7997 73.3952 17.5346 73.2674 17.3026H73.0898V19H71.016ZM73.0969 13.5455C73.0969 14.3125 73.2082 14.9848 73.4308 15.5625C73.6533 16.1402 73.9753 16.5923 74.3967 16.919C74.8181 17.241 75.3342 17.402 75.945 17.402C76.5794 17.402 77.1097 17.2339 77.5359 16.8977C77.962 16.5568 78.284 16.0952 78.5018 15.5128C78.7243 14.9304 78.8356 14.2746 78.8356 13.5455C78.8356 12.8258 78.7267 12.1795 78.5089 11.6065C78.2958 11.0336 77.9738 10.5814 77.543 10.25C77.1168 9.91856 76.5842 9.75284 75.945 9.75284C75.3294 9.75284 74.8086 9.91146 74.3825 10.2287C73.9611 10.5459 73.6415 10.9886 73.4237 11.5568C73.2058 12.125 73.0969 12.7879 73.0969 13.5455ZM90.2756 14.4759V8.09091H92.4062V19H90.3182V17.1108H90.2045C89.9536 17.6932 89.5511 18.1785 88.9972 18.5668C88.4479 18.9503 87.7637 19.142 86.9446 19.142C86.2438 19.142 85.6236 18.9882 85.0838 18.6804C84.5488 18.3679 84.1274 17.9062 83.8196 17.2955C83.5166 16.6847 83.3651 15.9295 83.3651 15.0298V8.09091H85.4886V14.7741C85.4886 15.5175 85.6946 16.1094 86.1065 16.5497C86.5185 16.9901 87.0535 17.2102 87.7116 17.2102C88.1094 17.2102 88.5047 17.1108 88.8977 16.9119C89.2955 16.7131 89.6245 16.4124 89.8849 16.0099C90.1501 15.6075 90.2803 15.0961 90.2756 14.4759ZM100.352 8.09091V9.79545H94.3931V8.09091H100.352ZM95.9911 5.47727H98.1147V15.7969C98.1147 16.2088 98.1763 16.5189 98.2994 16.7273C98.4225 16.9309 98.5811 17.0705 98.7752 17.1463C98.9741 17.2173 99.1895 17.2528 99.4215 17.2528C99.592 17.2528 99.7411 17.241 99.869 17.2173C99.9968 17.1937 100.096 17.1747 100.167 17.1605L100.551 18.9148C100.428 18.9621 100.252 19.0095 100.025 19.0568C99.7979 19.1089 99.5138 19.1373 99.1729 19.142C98.6142 19.1515 98.0934 19.0521 97.6104 18.8438C97.1275 18.6354 96.7369 18.3134 96.4386 17.8778C96.1403 17.4422 95.9911 16.8954 95.9911 16.2372V5.47727ZM107.286 19.2202C106.211 19.2202 105.285 18.9905 104.509 18.5312C103.737 18.0672 103.14 17.4162 102.719 16.5781C102.302 15.7353 102.094 14.7481 102.094 13.6165C102.094 12.4991 102.302 11.5142 102.719 10.6619C103.14 9.80966 103.727 9.14441 104.48 8.66619C105.238 8.18797 106.123 7.94886 107.136 7.94886C107.752 7.94886 108.348 8.05066 108.926 8.25426C109.504 8.45786 110.022 8.77746 110.482 9.21307C110.941 9.64867 111.303 10.2145 111.568 10.9105C111.833 11.6018 111.966 12.4422 111.966 13.4318V14.1847H103.294V12.5938H109.885C109.885 12.035 109.771 11.5402 109.544 11.1094C109.317 10.6738 108.997 10.3305 108.585 10.0795C108.178 9.8286 107.7 9.70312 107.151 9.70312C106.554 9.70312 106.033 9.84991 105.588 10.1435C105.148 10.4323 104.807 10.8111 104.565 11.2798C104.329 11.7438 104.21 12.2481 104.21 12.7926V14.0355C104.21 14.7647 104.338 15.3849 104.594 15.8963C104.854 16.4077 105.216 16.7983 105.68 17.0682C106.144 17.3333 106.687 17.4659 107.307 17.4659C107.709 17.4659 108.076 17.4091 108.408 17.2955C108.739 17.1771 109.026 17.0019 109.267 16.7699C109.509 16.5379 109.693 16.2514 109.821 15.9105L111.831 16.2727C111.67 16.8646 111.381 17.383 110.964 17.8281C110.553 18.2685 110.034 18.6117 109.409 18.858C108.789 19.0994 108.081 19.2202 107.286 19.2202ZM122.497 10.7543L120.572 11.0952C120.492 10.849 120.364 10.6146 120.189 10.392C120.018 10.1695 119.786 9.98722 119.493 9.84517C119.199 9.70312 118.832 9.6321 118.392 9.6321C117.79 9.6321 117.288 9.76705 116.886 10.0369C116.484 10.3021 116.282 10.6454 116.282 11.0668C116.282 11.4313 116.417 11.7249 116.687 11.9474C116.957 12.17 117.393 12.3523 117.994 12.4943L119.727 12.892C120.731 13.1241 121.479 13.4815 121.971 13.9645C122.464 14.4474 122.71 15.0748 122.71 15.8466C122.71 16.5 122.52 17.0824 122.142 17.5938C121.768 18.1004 121.244 18.4981 120.572 18.7869C119.904 19.0758 119.13 19.2202 118.25 19.2202C117.028 19.2202 116.031 18.9598 115.26 18.4389C114.488 17.9134 114.014 17.1676 113.839 16.2017L115.892 15.8892C116.02 16.4242 116.282 16.8291 116.68 17.1037C117.078 17.3736 117.596 17.5085 118.235 17.5085C118.931 17.5085 119.488 17.3641 119.904 17.0753C120.321 16.7817 120.529 16.4242 120.529 16.0028C120.529 15.6619 120.402 15.3755 120.146 15.1435C119.895 14.9115 119.509 14.7363 118.988 14.6179L117.142 14.2131C116.124 13.9811 115.371 13.6117 114.883 13.1051C114.4 12.5985 114.159 11.9569 114.159 11.1804C114.159 10.5365 114.339 9.97301 114.699 9.49006C115.058 9.0071 115.556 8.63068 116.19 8.3608C116.824 8.08617 117.551 7.94886 118.37 7.94886C119.549 7.94886 120.477 8.20455 121.154 8.71591C121.832 9.22254 122.279 9.90199 122.497 10.7543Z" fill="white"/>
<line x1="161" y1="11.5" x2="326" y2="11.5" stroke="black"/>
<g filter="url(#filter0_d_18_69)">
<rect x="4.5" y="72.5" width="69" height="84" rx="7.5" fill="white" stroke="black"/>
<rect x="15" y="64" width="48" height="31" rx="3" fill="#FF6F00" stroke="black" stroke-width="1.5"/>
<path d="M19.946 74.7273L21.7038 80.2528H21.7713L23.5327 74.7273H25.2372L22.7301 82H20.7486L18.2379 74.7273H19.946ZM27.9547 82.1065C27.3936 82.1065 26.9107 81.9929 26.5059 81.7656C26.1034 81.536 25.7933 81.2116 25.5755 80.7926C25.3577 80.3712 25.2488 79.8729 25.2488 79.2976C25.2488 78.7365 25.3577 78.2441 25.5755 77.8203C25.7933 77.3965 26.0998 77.0663 26.4952 76.8295C26.8929 76.5928 27.3593 76.4744 27.8944 76.4744C28.2542 76.4744 28.5892 76.5324 28.8993 76.6484C29.2118 76.7621 29.4841 76.9337 29.7161 77.1634C29.9505 77.393 30.1328 77.6818 30.263 78.0298C30.3932 78.3755 30.4583 78.7803 30.4583 79.2443V79.6598H25.8525V78.7223H29.0343C29.0343 78.5045 28.9869 78.3116 28.8922 78.1435C28.7975 77.9754 28.6661 77.844 28.498 77.7493C28.3323 77.6522 28.1394 77.6037 27.9192 77.6037C27.6896 77.6037 27.486 77.657 27.3084 77.7635C27.1332 77.8677 26.9959 78.0085 26.8965 78.1861C26.7971 78.3613 26.7462 78.5566 26.7438 78.772V79.6634C26.7438 79.9332 26.7935 80.1664 26.8929 80.3629C26.9947 80.5594 27.138 80.7109 27.3226 80.8175C27.5073 80.924 27.7263 80.9773 27.9796 80.9773C28.1477 80.9773 28.3016 80.9536 28.4412 80.9062C28.5809 80.8589 28.7005 80.7879 28.7999 80.6932C28.8993 80.5985 28.9751 80.4825 29.0272 80.3452L30.4263 80.4375C30.3553 80.7737 30.2097 81.0672 29.9895 81.3182C29.7717 81.5668 29.49 81.7609 29.1444 81.9006C28.8011 82.0379 28.4045 82.1065 27.9547 82.1065ZM32.9583 78.8466V82H31.4455V74.7273H32.9157V77.5078H32.9796C33.1027 77.1858 33.3016 76.9337 33.5762 76.7514C33.8508 76.5668 34.1953 76.4744 34.6096 76.4744C34.9883 76.4744 35.3186 76.5573 35.6003 76.723C35.8844 76.8864 36.1046 77.1219 36.2608 77.4297C36.4194 77.7351 36.4976 78.1009 36.4952 78.527V82H34.9824V78.7969C34.9848 78.4607 34.8996 78.1991 34.7267 78.0121C34.5563 77.825 34.3172 77.7315 34.0094 77.7315C33.8034 77.7315 33.6212 77.7753 33.4625 77.8629C33.3063 77.9505 33.1832 78.0784 33.0932 78.2464C33.0056 78.4122 32.9606 78.6122 32.9583 78.8466ZM37.6857 82V76.5455H39.1985V82H37.6857ZM38.4457 75.8423C38.2208 75.8423 38.0278 75.7678 37.8668 75.6186C37.7082 75.4671 37.6289 75.286 37.6289 75.0753C37.6289 74.867 37.7082 74.6882 37.8668 74.5391C38.0278 74.3875 38.2208 74.3118 38.4457 74.3118C38.6706 74.3118 38.8623 74.3875 39.021 74.5391C39.1819 74.6882 39.2624 74.867 39.2624 75.0753C39.2624 75.286 39.1819 75.4671 39.021 75.6186C38.8623 75.7678 38.6706 75.8423 38.4457 75.8423ZM42.8748 82.1065C42.3161 82.1065 41.8355 81.9882 41.4331 81.7514C41.033 81.5123 40.7252 81.1809 40.5098 80.7571C40.2967 80.3333 40.1902 79.8456 40.1902 79.294C40.1902 78.7353 40.2979 78.2453 40.5133 77.8239C40.7311 77.4001 41.0401 77.0698 41.4402 76.8331C41.8403 76.594 42.3161 76.4744 42.8677 76.4744C43.3436 76.4744 43.7602 76.5608 44.1177 76.7337C44.4752 76.9065 44.7581 77.1491 44.9664 77.4616C45.1748 77.7741 45.2896 78.1411 45.3109 78.5625H43.8833C43.8431 78.2902 43.7366 78.0713 43.5637 77.9055C43.3933 77.7375 43.1696 77.6534 42.8926 77.6534C42.6582 77.6534 42.4534 77.7173 42.2782 77.8452C42.1054 77.9706 41.9705 78.1541 41.8734 78.3956C41.7763 78.6371 41.7278 78.9295 41.7278 79.2727C41.7278 79.6207 41.7752 79.9167 41.8699 80.1605C41.9669 80.4044 42.103 80.5902 42.2782 80.718C42.4534 80.8459 42.6582 80.9098 42.8926 80.9098C43.0654 80.9098 43.2205 80.8743 43.3578 80.8033C43.4975 80.7322 43.6123 80.6293 43.7022 80.4943C43.7946 80.357 43.8549 80.1925 43.8833 80.0007H45.3109C45.2872 80.4174 45.1736 80.7843 44.97 81.1016C44.7688 81.4164 44.4906 81.6626 44.1355 81.8402C43.7804 82.0178 43.3601 82.1065 42.8748 82.1065ZM49.7773 79.6776V76.5455H51.2901V82H49.8377V81.0092H49.7809C49.6578 81.3288 49.453 81.5857 49.1665 81.7798C48.8825 81.974 48.5356 82.071 48.1261 82.071C47.7615 82.071 47.4407 81.9882 47.1637 81.8224C46.8867 81.6567 46.6701 81.4212 46.5138 81.1158C46.36 80.8104 46.2818 80.4446 46.2795 80.0185V76.5455H47.7923V79.7486C47.7946 80.0705 47.881 80.325 48.0515 80.5121C48.2219 80.6991 48.4504 80.7926 48.7369 80.7926C48.9192 80.7926 49.0896 80.7512 49.2482 80.6683C49.4068 80.5831 49.5347 80.4576 49.6317 80.2919C49.7312 80.1262 49.7797 79.9214 49.7773 79.6776ZM54.013 74.7273V82H52.5002V74.7273H54.013ZM57.7106 82.1065C57.1495 82.1065 56.6665 81.9929 56.2617 81.7656C55.8593 81.536 55.5491 81.2116 55.3313 80.7926C55.1135 80.3712 55.0046 79.8729 55.0046 79.2976C55.0046 78.7365 55.1135 78.2441 55.3313 77.8203C55.5491 77.3965 55.8557 77.0663 56.2511 76.8295C56.6488 76.5928 57.1152 76.4744 57.6502 76.4744C58.0101 76.4744 58.3451 76.5324 58.6552 76.6484C58.9677 76.7621 59.2399 76.9337 59.4719 77.1634C59.7063 77.393 59.8886 77.6818 60.0188 78.0298C60.149 78.3755 60.2141 78.7803 60.2141 79.2443V79.6598H55.6083V78.7223H58.7901C58.7901 78.5045 58.7428 78.3116 58.6481 78.1435C58.5534 77.9754 58.422 77.844 58.2539 77.7493C58.0882 77.6522 57.8952 77.6037 57.6751 77.6037C57.4454 77.6037 57.2418 77.657 57.0643 77.7635C56.8891 77.8677 56.7518 78.0085 56.6523 78.1861C56.5529 78.3613 56.502 78.5566 56.4996 78.772V79.6634C56.4996 79.9332 56.5494 80.1664 56.6488 80.3629C56.7506 80.5594 56.8938 80.7109 57.0785 80.8175C57.2631 80.924 57.4821 80.9773 57.7354 80.9773C57.9035 80.9773 58.0574 80.9536 58.1971 80.9062C58.3368 80.8589 58.4563 80.7879 58.5558 80.6932C58.6552 80.5985 58.7309 80.4825 58.783 80.3452L60.1822 80.4375C60.1112 80.7737 59.9656 81.0672 59.7454 81.3182C59.5276 81.5668 59.2459 81.7609 58.9002 81.9006C58.5569 82.0379 58.1604 82.1065 57.7106 82.1065Z" fill="white"/>
<rect x="237.5" y="72.5" width="69" height="84" rx="7.5" fill="white" stroke="black"/>
<rect x="248" y="64" width="48" height="31" rx="3" fill="#FF6F00" stroke="black" stroke-width="1.5"/>
<path d="M266.049 76.2734H264.494C264.465 76.0722 264.407 75.8935 264.32 75.7372C264.232 75.5786 264.12 75.4437 263.982 75.3324C263.845 75.2211 263.686 75.1359 263.506 75.0767C263.329 75.0175 263.136 74.9879 262.928 74.9879C262.551 74.9879 262.223 75.0814 261.944 75.2685C261.665 75.4531 261.448 75.723 261.294 76.0781C261.14 76.4309 261.063 76.8594 261.063 77.3636C261.063 77.8821 261.14 78.3177 261.294 78.6705C261.45 79.0232 261.668 79.2895 261.947 79.4695C262.227 79.6494 262.55 79.7393 262.917 79.7393C263.123 79.7393 263.313 79.7121 263.489 79.6577C263.666 79.6032 263.824 79.5239 263.961 79.4197C264.098 79.3132 264.212 79.1842 264.302 79.0327C264.394 78.8812 264.458 78.7083 264.494 78.5142L266.049 78.5213C266.009 78.8551 265.908 79.1771 265.747 79.4872C265.589 79.795 265.374 80.0708 265.104 80.3146C264.837 80.5561 264.517 80.7479 264.146 80.8899C263.776 81.0296 263.358 81.0994 262.892 81.0994C262.243 81.0994 261.663 80.9527 261.152 80.6591C260.643 80.3655 260.241 79.9406 259.945 79.3842C259.651 78.8279 259.504 78.1544 259.504 77.3636C259.504 76.5705 259.653 75.8958 259.952 75.3395C260.25 74.7831 260.655 74.3594 261.166 74.0682C261.678 73.7746 262.253 73.6278 262.892 73.6278C263.313 73.6278 263.704 73.687 264.064 73.8054C264.426 73.9238 264.747 74.0966 265.026 74.3239C265.306 74.5488 265.533 74.8246 265.708 75.1513C265.886 75.478 265.999 75.852 266.049 76.2734ZM269.588 81.1065C269.036 81.1065 268.559 80.9893 268.157 80.755C267.757 80.5182 267.448 80.1892 267.23 79.7678C267.012 79.344 266.903 78.8527 266.903 78.294C266.903 77.7306 267.012 77.2382 267.23 76.8168C267.448 76.393 267.757 76.0639 268.157 75.8295C268.559 75.5928 269.036 75.4744 269.588 75.4744C270.139 75.4744 270.615 75.5928 271.015 75.8295C271.418 76.0639 271.728 76.393 271.946 76.8168C272.163 77.2382 272.272 77.7306 272.272 78.294C272.272 78.8527 272.163 79.344 271.946 79.7678C271.728 80.1892 271.418 80.5182 271.015 80.755C270.615 80.9893 270.139 81.1065 269.588 81.1065ZM269.595 79.9347C269.846 79.9347 270.055 79.8636 270.223 79.7216C270.391 79.5772 270.518 79.3807 270.603 79.1321C270.691 78.8835 270.735 78.6006 270.735 78.2834C270.735 77.9661 270.691 77.6832 270.603 77.4347C270.518 77.1861 270.391 76.9896 270.223 76.8452C270.055 76.7008 269.846 76.6286 269.595 76.6286C269.342 76.6286 269.128 76.7008 268.956 76.8452C268.785 76.9896 268.656 77.1861 268.569 77.4347C268.483 77.6832 268.441 77.9661 268.441 78.2834C268.441 78.6006 268.483 78.8835 268.569 79.1321C268.656 79.3807 268.785 79.5772 268.956 79.7216C269.128 79.8636 269.342 79.9347 269.595 79.9347ZM274.769 73.7273V81H273.256V73.7273H274.769ZM278.445 81.1065C277.894 81.1065 277.416 80.9893 277.014 80.755C276.614 80.5182 276.305 80.1892 276.087 79.7678C275.869 79.344 275.76 78.8527 275.76 78.294C275.76 77.7306 275.869 77.2382 276.087 76.8168C276.305 76.393 276.614 76.0639 277.014 75.8295C277.416 75.5928 277.894 75.4744 278.445 75.4744C278.997 75.4744 279.473 75.5928 279.873 75.8295C280.275 76.0639 280.585 76.393 280.803 76.8168C281.021 77.2382 281.13 77.7306 281.13 78.294C281.13 78.8527 281.021 79.344 280.803 79.7678C280.585 80.1892 280.275 80.5182 279.873 80.755C279.473 80.9893 278.997 81.1065 278.445 81.1065ZM278.452 79.9347C278.703 79.9347 278.913 79.8636 279.081 79.7216C279.249 79.5772 279.376 79.3807 279.461 79.1321C279.548 78.8835 279.592 78.6006 279.592 78.2834C279.592 77.9661 279.548 77.6832 279.461 77.4347C279.376 77.1861 279.249 76.9896 279.081 76.8452C278.913 76.7008 278.703 76.6286 278.452 76.6286C278.199 76.6286 277.986 76.7008 277.813 76.8452C277.643 76.9896 277.514 77.1861 277.426 77.4347C277.341 77.6832 277.298 77.9661 277.298 78.2834C277.298 78.6006 277.341 78.8835 277.426 79.1321C277.514 79.3807 277.643 79.5772 277.813 79.7216C277.986 79.8636 278.199 79.9347 278.452 79.9347ZM282.113 81V75.5455H283.58V76.4972H283.637C283.736 76.1586 283.903 75.9029 284.138 75.7301C284.372 75.5549 284.642 75.4673 284.947 75.4673C285.023 75.4673 285.105 75.4721 285.192 75.4815C285.28 75.491 285.357 75.504 285.423 75.5206V76.8629C285.352 76.8416 285.254 76.8227 285.128 76.8061C285.003 76.7895 284.888 76.7812 284.784 76.7812C284.561 76.7812 284.363 76.8298 284.187 76.9268C284.015 77.0215 283.877 77.1541 283.775 77.3246C283.676 77.495 283.626 77.6915 283.626 77.9141V81H282.113Z" fill="white"/>
<rect x="161.5" y="72.5" width="69" height="84" rx="7.5" fill="white" stroke="black"/>
<rect x="172" y="64" width="48" height="31" rx="3" fill="#FF6F00" stroke="black" stroke-width="1.5"/>
<path d="M180.632 73.7273H182.528L184.531 78.6136H184.616L186.619 73.7273H188.516V81H187.024V76.2663H186.964L185.082 80.9645H184.066L182.184 76.2486H182.124V81H180.632V73.7273ZM192.219 81.1065C191.667 81.1065 191.19 80.9893 190.787 80.755C190.387 80.5182 190.078 80.1892 189.861 79.7678C189.643 79.344 189.534 78.8527 189.534 78.294C189.534 77.7306 189.643 77.2382 189.861 76.8168C190.078 76.393 190.387 76.0639 190.787 75.8295C191.19 75.5928 191.667 75.4744 192.219 75.4744C192.77 75.4744 193.246 75.5928 193.646 75.8295C194.049 76.0639 194.359 76.393 194.577 76.8168C194.794 77.2382 194.903 77.7306 194.903 78.294C194.903 78.8527 194.794 79.344 194.577 79.7678C194.359 80.1892 194.049 80.5182 193.646 80.755C193.246 80.9893 192.77 81.1065 192.219 81.1065ZM192.226 79.9347C192.477 79.9347 192.686 79.8636 192.854 79.7216C193.022 79.5772 193.149 79.3807 193.234 79.1321C193.322 78.8835 193.366 78.6006 193.366 78.2834C193.366 77.9661 193.322 77.6832 193.234 77.4347C193.149 77.1861 193.022 76.9896 192.854 76.8452C192.686 76.7008 192.477 76.6286 192.226 76.6286C191.972 76.6286 191.759 76.7008 191.586 76.8452C191.416 76.9896 191.287 77.1861 191.199 77.4347C191.114 77.6832 191.072 77.9661 191.072 78.2834C191.072 78.6006 191.114 78.8835 191.199 79.1321C191.287 79.3807 191.416 79.5772 191.586 79.7216C191.759 79.8636 191.972 79.9347 192.226 79.9347ZM197.897 81.0888C197.483 81.0888 197.107 80.9822 196.771 80.7692C196.437 80.5537 196.172 80.2377 195.976 79.821C195.782 79.402 195.684 78.8883 195.684 78.2798C195.684 77.6548 195.785 77.1352 195.986 76.7209C196.188 76.3042 196.455 75.9929 196.789 75.7869C197.125 75.5786 197.493 75.4744 197.893 75.4744C198.199 75.4744 198.453 75.5265 198.657 75.6307C198.863 75.7325 199.028 75.8603 199.154 76.0142C199.282 76.1657 199.379 76.3149 199.445 76.4616H199.491V73.7273H201.001V81H199.509V80.1264H199.445C199.374 80.2779 199.273 80.4283 199.143 80.5774C199.015 80.7242 198.849 80.8461 198.643 80.9432C198.439 81.0402 198.19 81.0888 197.897 81.0888ZM198.376 79.8849C198.62 79.8849 198.826 79.8187 198.994 79.6861C199.165 79.5511 199.295 79.3629 199.385 79.1214C199.477 78.88 199.523 78.5971 199.523 78.2727C199.523 77.9484 199.478 77.6667 199.388 77.4276C199.298 77.1884 199.168 77.0038 198.998 76.8736C198.827 76.7434 198.62 76.6783 198.376 76.6783C198.128 76.6783 197.918 76.7457 197.748 76.8807C197.577 77.0156 197.448 77.2027 197.361 77.4418C197.273 77.6809 197.229 77.9579 197.229 78.2727C197.229 78.59 197.273 78.8705 197.361 79.1143C197.451 79.3558 197.58 79.5452 197.748 79.6825C197.918 79.8175 198.128 79.8849 198.376 79.8849ZM204.73 81.1065C204.169 81.1065 203.686 80.9929 203.281 80.7656C202.879 80.536 202.569 80.2116 202.351 79.7926C202.133 79.3712 202.024 78.8729 202.024 78.2976C202.024 77.7365 202.133 77.2441 202.351 76.8203C202.569 76.3965 202.875 76.0663 203.271 75.8295C203.668 75.5928 204.135 75.4744 204.67 75.4744C205.03 75.4744 205.365 75.5324 205.675 75.6484C205.987 75.7621 206.259 75.9337 206.491 76.1634C206.726 76.393 206.908 76.6818 207.038 77.0298C207.169 77.3755 207.234 77.7803 207.234 78.2443V78.6598H202.628V77.7223H205.81C205.81 77.5045 205.762 77.3116 205.668 77.1435C205.573 76.9754 205.442 76.844 205.273 76.7493C205.108 76.6522 204.915 76.6037 204.695 76.6037C204.465 76.6037 204.261 76.657 204.084 76.7635C203.909 76.8677 203.771 77.0085 203.672 77.1861C203.572 77.3613 203.522 77.5566 203.519 77.772V78.6634C203.519 78.9332 203.569 79.1664 203.668 79.3629C203.77 79.5594 203.913 79.7109 204.098 79.8175C204.283 79.924 204.502 79.9773 204.755 79.9773C204.923 79.9773 205.077 79.9536 205.217 79.9062C205.356 79.8589 205.476 79.7879 205.575 79.6932C205.675 79.5985 205.75 79.4825 205.803 79.3452L207.202 79.4375C207.131 79.7737 206.985 80.0672 206.765 80.3182C206.547 80.5668 206.265 80.7609 205.92 80.9006C205.576 81.0379 205.18 81.1065 204.73 81.1065ZM209.734 73.7273V81H208.221V73.7273H209.734Z" fill="white"/>
<rect x="82.5" y="72.5" width="69" height="84" rx="7.5" fill="white" stroke="black"/>
<rect x="93" y="64" width="48" height="31" rx="3" fill="#FF6F00" stroke="black" stroke-width="1.5"/>
<path d="M101.632 80V72.7273H104.544C105.079 72.7273 105.525 72.8066 105.883 72.9652C106.24 73.1238 106.509 73.344 106.689 73.6257C106.869 73.9051 106.959 74.227 106.959 74.5916C106.959 74.8757 106.902 75.1255 106.788 75.3409C106.675 75.554 106.518 75.7292 106.32 75.8665C106.123 76.0014 105.898 76.0973 105.645 76.1541V76.2251C105.922 76.237 106.181 76.3151 106.423 76.4595C106.666 76.6039 106.864 76.8063 107.016 77.0668C107.167 77.3248 107.243 77.6326 107.243 77.9901C107.243 78.3759 107.147 78.7204 106.955 79.0234C106.766 79.3241 106.485 79.562 106.114 79.7372C105.742 79.9124 105.284 80 104.739 80H101.632ZM103.17 78.7429H104.423C104.852 78.7429 105.164 78.6612 105.361 78.4979C105.557 78.3321 105.656 78.112 105.656 77.8374C105.656 77.6361 105.607 77.4586 105.51 77.3047C105.413 77.1508 105.274 77.0301 105.094 76.9425C104.917 76.8549 104.705 76.8111 104.459 76.8111H103.17V78.7429ZM103.17 75.7706H104.31C104.52 75.7706 104.707 75.7339 104.871 75.6605C105.036 75.5848 105.167 75.4782 105.261 75.3409C105.358 75.2036 105.407 75.0391 105.407 74.8473C105.407 74.5845 105.313 74.3726 105.126 74.2116C104.942 74.0507 104.679 73.9702 104.338 73.9702H103.17V75.7706ZM108.215 80V74.5455H109.682V75.4972H109.738C109.838 75.1586 110.005 74.9029 110.239 74.7301C110.474 74.5549 110.743 74.4673 111.049 74.4673C111.125 74.4673 111.206 74.4721 111.294 74.4815C111.381 74.491 111.458 74.504 111.525 74.5206V75.8629C111.454 75.8416 111.355 75.8227 111.23 75.8061C111.104 75.7895 110.99 75.7812 110.885 75.7812C110.663 75.7812 110.464 75.8298 110.289 75.9268C110.116 76.0215 109.979 76.1541 109.877 76.3246C109.778 76.495 109.728 76.6915 109.728 76.9141V80H108.215ZM113.706 80.103C113.358 80.103 113.048 80.0426 112.776 79.9219C112.503 79.7988 112.288 79.6177 112.129 79.3786C111.973 79.1371 111.895 78.8364 111.895 78.4766C111.895 78.1735 111.951 77.919 112.062 77.7131C112.173 77.5071 112.325 77.3414 112.516 77.2159C112.708 77.0904 112.926 76.9957 113.17 76.9318C113.416 76.8679 113.674 76.8229 113.944 76.7969C114.261 76.7637 114.517 76.733 114.711 76.7045C114.905 76.6738 115.046 76.6288 115.134 76.5696C115.221 76.5104 115.265 76.4228 115.265 76.3068V76.2855C115.265 76.0606 115.194 75.8866 115.052 75.7635C114.912 75.6404 114.713 75.5788 114.455 75.5788C114.183 75.5788 113.966 75.6392 113.805 75.7599C113.644 75.8783 113.538 76.0275 113.486 76.2074L112.087 76.0938C112.158 75.7623 112.297 75.4759 112.506 75.2344C112.714 74.9905 112.983 74.8035 113.312 74.6733C113.643 74.5407 114.027 74.4744 114.462 74.4744C114.765 74.4744 115.055 74.5099 115.332 74.581C115.612 74.652 115.859 74.7621 116.075 74.9112C116.292 75.0604 116.464 75.2521 116.589 75.4865C116.715 75.7185 116.778 75.9967 116.778 76.321V80H115.343V79.2436H115.3C115.213 79.4141 115.096 79.5644 114.949 79.6946C114.802 79.8224 114.626 79.9231 114.42 79.9964C114.214 80.0675 113.976 80.103 113.706 80.103ZM114.139 79.0589C114.362 79.0589 114.558 79.0152 114.729 78.9276C114.899 78.8376 115.033 78.7169 115.13 78.5653C115.227 78.4138 115.276 78.2422 115.276 78.0504V77.4716C115.228 77.5024 115.163 77.5308 115.08 77.5568C115 77.5805 114.909 77.603 114.807 77.6243C114.705 77.6432 114.603 77.661 114.501 77.6776C114.4 77.6918 114.307 77.7048 114.224 77.7166C114.047 77.7427 113.892 77.7841 113.759 77.8409C113.627 77.8977 113.524 77.9747 113.45 78.0717C113.377 78.1664 113.34 78.2848 113.34 78.4268C113.34 78.6328 113.415 78.7902 113.564 78.8991C113.715 79.0057 113.907 79.0589 114.139 79.0589ZM119.464 76.8466V80H117.951V74.5455H119.393V75.5078H119.457C119.578 75.1906 119.78 74.9396 120.064 74.755C120.348 74.5679 120.693 74.4744 121.098 74.4744C121.476 74.4744 121.807 74.5573 122.088 74.723C122.37 74.8887 122.589 75.1255 122.745 75.4332C122.902 75.7386 122.98 76.1032 122.98 76.527V80H121.467V76.7969C121.469 76.4631 121.384 76.2027 121.211 76.0156C121.038 75.8262 120.801 75.7315 120.498 75.7315C120.294 75.7315 120.114 75.7753 119.958 75.8629C119.804 75.9505 119.683 76.0784 119.596 76.2464C119.51 76.4122 119.467 76.6122 119.464 76.8466ZM126.182 80.0888C125.768 80.0888 125.392 79.9822 125.056 79.7692C124.722 79.5537 124.457 79.2377 124.261 78.821C124.067 78.402 123.97 77.8883 123.97 77.2798C123.97 76.6548 124.07 76.1352 124.271 75.7209C124.473 75.3042 124.74 74.9929 125.074 74.7869C125.41 74.5786 125.778 74.4744 126.178 74.4744C126.484 74.4744 126.738 74.5265 126.942 74.6307C127.148 74.7325 127.314 74.8603 127.439 75.0142C127.567 75.1657 127.664 75.3149 127.73 75.4616H127.776V72.7273H129.286V80H127.794V79.1264H127.73C127.659 79.2779 127.559 79.4283 127.428 79.5774C127.301 79.7242 127.134 79.8461 126.928 79.9432C126.724 80.0402 126.476 80.0888 126.182 80.0888ZM126.661 78.8849C126.905 78.8849 127.111 78.8187 127.279 78.6861C127.45 78.5511 127.58 78.3629 127.67 78.1214C127.762 77.88 127.808 77.5971 127.808 77.2727C127.808 76.9484 127.763 76.6667 127.673 76.4276C127.584 76.1884 127.453 76.0038 127.283 75.8736C127.112 75.7434 126.905 75.6783 126.661 75.6783C126.413 75.6783 126.203 75.7457 126.033 75.8807C125.862 76.0156 125.733 76.2027 125.646 76.4418C125.558 76.6809 125.514 76.9579 125.514 77.2727C125.514 77.59 125.558 77.8705 125.646 78.1143C125.736 78.3558 125.865 78.5452 126.033 78.6825C126.203 78.8175 126.413 78.8849 126.661 78.8849Z" fill="white"/>
</g>
<defs>
<filter id="filter0_d_18_69" x="0" y="63.25" width="311" height="101.75" filterUnits="userSpaceOnUse" color-interpolation-filters="sRGB">
<feFlood flood-opacity="0" result="BackgroundImageFix"/>
<feColorMatrix in="SourceAlpha" type="matrix" values="0 0 0 0 0 0 0 0 0 0 0 0 0 0 0 0 0 0 127 0" result="hardAlpha"/>
<feOffset dy="4"/>
<feGaussianBlur stdDeviation="2"/>
<feComposite in2="hardAlpha" operator="out"/>
<feColorMatrix type="matrix" values="0 0 0 0 0 0 0 0 0 0 0 0 0 0 0 0 0 0 0.25 0"/>
<feBlend mode="normal" in2="BackgroundImageFix" result="effect1_dropShadow_18_69"/>
<feBlend mode="normal" in="SourceGraphic" in2="effect1_dropShadow_18_69" result="shape"/>
</filter>
</defs>
</svg>
