<svg width="40" height="39" viewBox="0 0 40 39" fill="none" xmlns="http://www.w3.org/2000/svg">
<path d="M39.25 19.5C39.25 29.8376 30.6495 38.25 20 38.25C9.3505 38.25 0.75 29.8376 0.75 19.5C0.75 9.16245 9.3505 0.75 20 0.75C30.6495 0.75 39.25 9.16245 39.25 19.5Z" fill="#FF6F00" stroke="white" stroke-width="1.5"/>
<path d="M12 27.75V11.75C12 11.3358 12.3358 11 12.75 11H16.25C16.6642 11 17 11.3358 17 11.75V27.75C17 28.1642 16.6642 28.5 16.25 28.5H12.75C12.3358 28.5 12 28.1642 12 27.75Z" stroke="black" stroke-width="3"/>
<path d="M22 27.75V11.75C22 11.3358 22.3358 11 22.75 11H26.25C26.6642 11 27 11.3358 27 11.75V27.75C27 28.1642 26.6642 28.5 26.25 28.5H22.75C22.3358 28.5 22 28.1642 22 27.75Z" stroke="black" stroke-width="3"/>
</svg>
