<svg width="22" height="22" viewBox="0 0 22 22" fill="none" xmlns="http://www.w3.org/2000/svg">
<path d="M20 10.199H19.02C18.467 10.199 18.02 10.558 18.02 11C18.02 11.441 18.467 11.799 19.02 11.799H20C20.552 11.799 21 11.442 21 11C21 10.559 20.551 10.199 20 10.199ZM11 5.5C10.2771 5.49776 9.56089 5.63848 8.89259 5.91409C8.22428 6.1897 7.61708 6.59474 7.10591 7.10591C6.59474 7.61708 6.1897 8.22428 5.91409 8.89259C5.63848 9.56089 5.49776 10.2771 5.5 11C5.5 14.051 7.949 16.5 11 16.5C14.05 16.5 16.5 14.051 16.5 11C16.5 7.949 14.049 5.5 11 5.5ZM11 15C8.789 15 7 13.209 7 11C7 8.789 8.789 7 11 7C12.0609 7 13.0783 7.42143 13.8284 8.17157C14.5786 8.92172 15 9.93913 15 11C15 12.0609 14.5786 13.0783 13.8284 13.8284C13.0783 14.5786 12.0609 15 11 15ZM4 11C4 10.559 3.551 10.199 3 10.199H2C1.447 10.199 1 10.558 1 11C1 11.441 1.447 11.799 2 11.799H3C3.551 11.799 4 11.441 4 11ZM11 4C11.441 4 11.799 3.553 11.799 3V2C11.799 1.447 11.441 1 11 1C10.559 1 10.199 1.447 10.199 2V3C10.199 3.553 10.558 4 11 4ZM11 18C10.558 18 10.199 18.447 10.199 19V20C10.199 20.553 10.558 21 11 21C11.441 21 11.799 20.553 11.799 20V19C11.799 18.447 11.441 18 11 18ZM18.365 4.766C18.756 4.375 18.819 3.805 18.507 3.493C18.195 3.181 17.624 3.245 17.235 3.636L16.535 4.335C16.144 4.726 16.081 5.296 16.393 5.608C16.705 5.92 17.276 5.856 17.666 5.465L18.365 4.766ZM4.334 16.533L3.634 17.234C3.243 17.625 3.18 18.193 3.492 18.505C3.804 18.817 4.375 18.755 4.764 18.364L5.464 17.665C5.855 17.274 5.918 16.704 5.606 16.391C5.294 16.078 4.723 16.144 4.334 16.533ZM4.765 3.635C4.375 3.244 3.804 3.18 3.492 3.492C3.18 3.804 3.244 4.375 3.633 4.766L4.333 5.465C4.724 5.856 5.293 5.92 5.605 5.608C5.917 5.296 5.854 4.725 5.464 4.335L4.765 3.635ZM16.534 17.666L17.234 18.365C17.625 18.756 18.194 18.818 18.506 18.508C18.818 18.196 18.755 17.625 18.364 17.235L17.665 16.536C17.274 16.145 16.704 16.081 16.391 16.393C16.078 16.705 16.143 17.275 16.534 17.666Z" fill="white" stroke="white"/>
</svg>
