<svg width="321" height="24" viewBox="0 0 321 24" fill="none" xmlns="http://www.w3.org/2000/svg">
<rect x="0.75" y="0.75" width="145.5" height="22.5" rx="9.25" fill="#FF6F00" stroke="black" stroke-width="1.5"/>
<path d="M32.598 4.45455H35.2614L39.892 15.7614H40.0625L44.6932 4.45455H47.3565V19H45.2685V8.47443H45.1335L40.8438 18.9787H39.1108L34.821 8.46733H34.6861V19H32.598V4.45455ZM55.0785 19.2202C54.0037 19.2202 53.078 18.9905 52.3015 18.5312C51.5297 18.0672 50.9331 17.4162 50.5117 16.5781C50.0951 15.7353 49.8867 14.7481 49.8867 13.6165C49.8867 12.4991 50.0951 11.5142 50.5117 10.6619C50.9331 9.80966 51.5202 9.14441 52.2731 8.66619C53.0307 8.18797 53.9161 7.94886 54.9293 7.94886C55.5449 7.94886 56.1415 8.05066 56.7191 8.25426C57.2968 8.45786 57.8152 8.77746 58.2745 9.21307C58.7338 9.64867 59.096 10.2145 59.3612 10.9105C59.6263 11.6018 59.7589 12.4422 59.7589 13.4318V14.1847H51.087V12.5938H57.6779C57.6779 12.035 57.5643 11.5402 57.337 11.1094C57.1097 10.6738 56.7901 10.3305 56.3782 10.0795C55.971 9.8286 55.4928 9.70312 54.9435 9.70312C54.3469 9.70312 53.8261 9.84991 53.381 10.1435C52.9407 10.4323 52.5998 10.8111 52.3583 11.2798C52.1216 11.7438 52.0032 12.2481 52.0032 12.7926V14.0355C52.0032 14.7647 52.131 15.3849 52.3867 15.8963C52.6471 16.4077 53.0094 16.7983 53.4734 17.0682C53.9374 17.3333 54.4795 17.4659 55.0998 17.4659C55.5022 17.4659 55.8692 17.4091 56.2006 17.2955C56.5321 17.1771 56.8185 17.0019 57.06 16.7699C57.3015 16.5379 57.4862 16.2514 57.614 15.9105L59.6239 16.2727C59.4629 16.8646 59.1741 17.383 58.7575 17.8281C58.3455 18.2685 57.8271 18.6117 57.2021 18.858C56.5818 19.0994 55.8739 19.2202 55.0785 19.2202ZM67.2074 8.09091V9.79545H61.2486V8.09091H67.2074ZM62.8466 5.47727H64.9702V15.7969C64.9702 16.2088 65.0317 16.5189 65.1548 16.7273C65.2779 16.9309 65.4366 17.0705 65.6307 17.1463C65.8295 17.2173 66.045 17.2528 66.277 17.2528C66.4474 17.2528 66.5966 17.241 66.7244 17.2173C66.8523 17.1937 66.9517 17.1747 67.0227 17.1605L67.4062 18.9148C67.2831 18.9621 67.108 19.0095 66.8807 19.0568C66.6534 19.1089 66.3693 19.1373 66.0284 19.142C65.4697 19.1515 64.9489 19.0521 64.4659 18.8438C63.983 18.6354 63.5923 18.3134 63.294 17.8778C62.9957 17.4422 62.8466 16.8954 62.8466 16.2372V5.47727ZM71.9144 12.5227V19H69.7908V4.45455H71.886V9.86648H72.021C72.2766 9.27936 72.6673 8.81297 73.1928 8.46733C73.7184 8.12169 74.4049 7.94886 75.2525 7.94886C76.0006 7.94886 76.654 8.10275 77.2127 8.41051C77.7762 8.71828 78.2118 9.17756 78.5195 9.78835C78.832 10.3944 78.9883 11.152 78.9883 12.0611V19H76.8647V12.3168C76.8647 11.5166 76.6587 10.8963 76.2468 10.456C75.8349 10.0109 75.262 9.78835 74.5281 9.78835C74.0262 9.78835 73.5763 9.89489 73.1786 10.108C72.7856 10.321 72.4755 10.6335 72.2482 11.0455C72.0257 11.4527 71.9144 11.9451 71.9144 12.5227ZM86.4173 19.2202C85.3945 19.2202 84.502 18.9858 83.7397 18.517C82.9774 18.0483 82.3855 17.3925 81.9641 16.5497C81.5427 15.7069 81.332 14.7221 81.332 13.5952C81.332 12.4635 81.5427 11.474 81.9641 10.6264C82.3855 9.77888 82.9774 9.12074 83.7397 8.65199C84.502 8.18324 85.3945 7.94886 86.4173 7.94886C87.44 7.94886 88.3325 8.18324 89.0948 8.65199C89.8571 9.12074 90.449 9.77888 90.8704 10.6264C91.2918 11.474 91.5025 12.4635 91.5025 13.5952C91.5025 14.7221 91.2918 15.7069 90.8704 16.5497C90.449 17.3925 89.8571 18.0483 89.0948 18.517C88.3325 18.9858 87.44 19.2202 86.4173 19.2202ZM86.4244 17.4375C87.0872 17.4375 87.6365 17.2623 88.0721 16.9119C88.5077 16.5616 88.8297 16.0952 89.038 15.5128C89.2511 14.9304 89.3576 14.2888 89.3576 13.5881C89.3576 12.892 89.2511 12.2528 89.038 11.6705C88.8297 11.0833 88.5077 10.6122 88.0721 10.2571C87.6365 9.90199 87.0872 9.72443 86.4244 9.72443C85.7567 9.72443 85.2028 9.90199 84.7624 10.2571C84.3268 10.6122 84.0025 11.0833 83.7894 11.6705C83.5811 12.2528 83.4769 12.892 83.4769 13.5881C83.4769 14.2888 83.5811 14.9304 83.7894 15.5128C84.0025 16.0952 84.3268 16.5616 84.7624 16.9119C85.2028 17.2623 85.7567 17.4375 86.4244 17.4375ZM97.9567 19.2131C97.076 19.2131 96.29 18.9882 95.5987 18.5384C94.9122 18.0838 94.3724 17.4375 93.9794 16.5994C93.5911 15.7566 93.397 14.7457 93.397 13.5668C93.397 12.3878 93.5935 11.3793 93.9865 10.5412C94.3842 9.70312 94.9287 9.06155 95.62 8.61648C96.3113 8.1714 97.0949 7.94886 97.9709 7.94886C98.648 7.94886 99.1925 8.0625 99.6044 8.28977C100.021 8.51231 100.343 8.77273 100.57 9.07102C100.802 9.36932 100.982 9.6321 101.11 9.85938H101.238V4.45455H103.362V19H101.288V17.3026H101.11C100.982 17.5346 100.798 17.7997 100.556 18.098C100.319 18.3963 99.9927 18.6567 99.576 18.8793C99.1593 19.1018 98.6196 19.2131 97.9567 19.2131ZM98.4254 17.402C99.0362 17.402 99.5523 17.241 99.9737 16.919C100.4 16.5923 100.722 16.1402 100.94 15.5625C101.162 14.9848 101.273 14.3125 101.273 13.5455C101.273 12.7879 101.165 12.125 100.947 11.5568C100.729 10.9886 100.409 10.5459 99.9879 10.2287C99.5665 9.91146 99.0457 9.75284 98.4254 9.75284C97.7862 9.75284 97.2536 9.91856 96.8274 10.25C96.4013 10.5814 96.0793 11.0336 95.8615 11.6065C95.6484 12.1795 95.5419 12.8258 95.5419 13.5455C95.5419 14.2746 95.6508 14.9304 95.8686 15.5128C96.0864 16.0952 96.4084 16.5568 96.8345 16.8977C97.2654 17.2339 97.7957 17.402 98.4254 17.402ZM114.567 10.7543L112.642 11.0952C112.562 10.849 112.434 10.6146 112.259 10.392C112.088 10.1695 111.856 9.98722 111.563 9.84517C111.269 9.70312 110.902 9.6321 110.462 9.6321C109.861 9.6321 109.359 9.76705 108.956 10.0369C108.554 10.3021 108.353 10.6454 108.353 11.0668C108.353 11.4313 108.488 11.7249 108.757 11.9474C109.027 12.17 109.463 12.3523 110.064 12.4943L111.797 12.892C112.801 13.1241 113.549 13.4815 114.042 13.9645C114.534 14.4474 114.78 15.0748 114.78 15.8466C114.78 16.5 114.591 17.0824 114.212 17.5938C113.838 18.1004 113.315 18.4981 112.642 18.7869C111.975 19.0758 111.201 19.2202 110.32 19.2202C109.098 19.2202 108.102 18.9598 107.33 18.4389C106.558 17.9134 106.085 17.1676 105.909 16.2017L107.962 15.8892C108.09 16.4242 108.353 16.8291 108.75 17.1037C109.148 17.3736 109.667 17.5085 110.306 17.5085C111.002 17.5085 111.558 17.3641 111.975 17.0753C112.391 16.7817 112.6 16.4242 112.6 16.0028C112.6 15.6619 112.472 15.3755 112.216 15.1435C111.965 14.9115 111.579 14.7363 111.059 14.6179L109.212 14.2131C108.194 13.9811 107.441 13.6117 106.953 13.1051C106.471 12.5985 106.229 11.9569 106.229 11.1804C106.229 10.5365 106.409 9.97301 106.769 9.49006C107.129 9.0071 107.626 8.63068 108.26 8.3608C108.895 8.08617 109.622 7.94886 110.441 7.94886C111.62 7.94886 112.548 8.20455 113.225 8.71591C113.902 9.22254 114.349 9.90199 114.567 10.7543Z" fill="white"/>
<line x1="156" y1="11.5" x2="321" y2="11.5" stroke="black"/>
</svg>
