<svg width="134" height="56" viewBox="0 0 134 56" fill="none" xmlns="http://www.w3.org/2000/svg">
<path d="M8.82244 22.679H5.66193L5.94602 12.4943H8.54545L8.82244 22.679ZM7.24574 7.94886C7.69555 7.94886 8.09091 8.11458 8.43182 8.44602C8.77273 8.77746 8.94555 9.17992 8.95028 9.65341C8.94555 10.1174 8.77273 10.5152 8.43182 10.8466C8.09091 11.178 7.69555 11.3438 7.24574 11.3438C6.77699 11.3438 6.37453 11.178 6.03835 10.8466C5.70218 10.5152 5.53646 10.1174 5.54119 9.65341C5.53646 9.33617 5.60985 9.04972 5.76136 8.79403C5.91761 8.53835 6.12595 8.33475 6.38636 8.18324C6.64678 8.02699 6.93324 7.94886 7.24574 7.94886ZM15.3068 22.679H12.1463L12.4304 12.4943H15.0298L15.3068 22.679ZM13.7301 7.94886C14.1799 7.94886 14.5753 8.11458 14.9162 8.44602C15.2571 8.77746 15.4299 9.17992 15.4347 9.65341C15.4299 10.1174 15.2571 10.5152 14.9162 10.8466C14.5753 11.178 14.1799 11.3438 13.7301 11.3438C13.2614 11.3438 12.8589 11.178 12.5227 10.8466C12.1866 10.5152 12.0208 10.1174 12.0256 9.65341C12.0208 9.33617 12.0942 9.04972 12.2457 8.79403C12.402 8.53835 12.6103 8.33475 12.8707 8.18324C13.1312 8.02699 13.4176 7.94886 13.7301 7.94886ZM21.5071 19L17.3452 4.45455H20.7045L23.1122 14.5611H23.233L25.8892 4.45455H28.7656L31.4148 14.5824H31.5426L33.9503 4.45455H37.3097L33.1477 19H30.1506L27.3807 9.49006H27.267L24.5043 19H21.5071ZM42.6985 19.2131C41.5763 19.2131 40.6104 18.9858 39.8008 18.5312C38.9959 18.072 38.3756 17.4233 37.94 16.5852C37.5044 15.7424 37.2866 14.7457 37.2866 13.5952C37.2866 12.473 37.5044 11.4882 37.94 10.6406C38.3756 9.79309 38.9888 9.13258 39.7795 8.65909C40.5749 8.18561 41.5077 7.94886 42.5778 7.94886C43.2975 7.94886 43.9674 8.06487 44.5877 8.29688C45.2127 8.52415 45.7572 8.86742 46.2212 9.3267C46.69 9.78598 47.0546 10.3636 47.315 11.0597C47.5754 11.7509 47.7056 12.5606 47.7056 13.4886V14.3196H38.494V12.4446H44.8576C44.8576 12.009 44.7629 11.6231 44.5735 11.2869C44.3841 10.9508 44.1213 10.688 43.7852 10.4986C43.4537 10.3045 43.0678 10.2074 42.6275 10.2074C42.1682 10.2074 41.761 10.3139 41.4059 10.527C41.0555 10.7353 40.7809 11.017 40.582 11.3722C40.3832 11.7225 40.2814 12.1132 40.2766 12.544V14.3267C40.2766 14.8665 40.3761 15.3329 40.5749 15.7259C40.7785 16.1188 41.065 16.4219 41.4343 16.6349C41.8036 16.848 42.2416 16.9545 42.7482 16.9545C43.0844 16.9545 43.3922 16.9072 43.6715 16.8125C43.9509 16.7178 44.19 16.5758 44.3888 16.3864C44.5877 16.197 44.7392 15.965 44.8434 15.6903L47.6417 15.875C47.4996 16.5473 47.2085 17.1345 46.7681 17.6364C46.3325 18.1335 45.7691 18.5218 45.0778 18.8011C44.3912 19.0758 43.5981 19.2131 42.6985 19.2131ZM52.7056 4.45455V19H49.68V4.45455H52.7056ZM60.0582 19.2131C58.9408 19.2131 57.9796 18.9763 57.1747 18.5028C56.3745 18.0246 55.759 17.3617 55.3281 16.5142C54.902 15.6667 54.6889 14.6913 54.6889 13.5881C54.6889 12.4706 54.9044 11.4905 55.3352 10.6477C55.7708 9.80019 56.3887 9.13968 57.1889 8.66619C57.9891 8.18797 58.9408 7.94886 60.044 7.94886C60.9957 7.94886 61.8291 8.12169 62.544 8.46733C63.259 8.81297 63.8248 9.2983 64.2415 9.9233C64.6581 10.5483 64.8878 11.2822 64.9304 12.125H62.0753C61.9948 11.5805 61.7817 11.1425 61.4361 10.8111C61.0952 10.4749 60.6477 10.3068 60.0938 10.3068C59.625 10.3068 59.2154 10.4347 58.8651 10.6903C58.5194 10.9413 58.2495 11.3082 58.0554 11.7912C57.8613 12.2741 57.7642 12.8589 57.7642 13.5455C57.7642 14.2415 57.8589 14.8333 58.0483 15.321C58.2424 15.8087 58.5147 16.1804 58.8651 16.4361C59.2154 16.6918 59.625 16.8196 60.0938 16.8196C60.4394 16.8196 60.7495 16.7486 61.0241 16.6065C61.3035 16.4645 61.5331 16.2585 61.7131 15.9886C61.8977 15.714 62.0185 15.3849 62.0753 15.0014H64.9304C64.883 15.8348 64.6558 16.5687 64.2486 17.2031C63.8461 17.8329 63.2898 18.3253 62.5795 18.6804C61.8693 19.0355 61.0289 19.2131 60.0582 19.2131ZM71.7965 19.2131C70.6933 19.2131 69.7392 18.9787 68.9343 18.5099C68.1341 18.0365 67.5162 17.3783 67.0806 16.5355C66.645 15.688 66.4272 14.7055 66.4272 13.5881C66.4272 12.4612 66.645 11.4763 67.0806 10.6335C67.5162 9.78598 68.1341 9.12784 68.9343 8.65909C69.7392 8.18561 70.6933 7.94886 71.7965 7.94886C72.8997 7.94886 73.8514 8.18561 74.6516 8.65909C75.4566 9.12784 76.0768 9.78598 76.5124 10.6335C76.948 11.4763 77.1658 12.4612 77.1658 13.5881C77.1658 14.7055 76.948 15.688 76.5124 16.5355C76.0768 17.3783 75.4566 18.0365 74.6516 18.5099C73.8514 18.9787 72.8997 19.2131 71.7965 19.2131ZM71.8107 16.8693C72.3126 16.8693 72.7317 16.7273 73.0678 16.4432C73.404 16.1544 73.6573 15.7614 73.8278 15.2642C74.003 14.767 74.0906 14.2012 74.0906 13.5668C74.0906 12.9323 74.003 12.3665 73.8278 11.8693C73.6573 11.3722 73.404 10.9792 73.0678 10.6903C72.7317 10.4015 72.3126 10.2571 71.8107 10.2571C71.3041 10.2571 70.878 10.4015 70.5323 10.6903C70.1914 10.9792 69.9334 11.3722 69.7582 11.8693C69.5877 12.3665 69.5025 12.9323 69.5025 13.5668C69.5025 14.2012 69.5877 14.767 69.7582 15.2642C69.9334 15.7614 70.1914 16.1544 70.5323 16.4432C70.878 16.7273 71.3041 16.8693 71.8107 16.8693ZM79.1332 19V8.09091H82.0167V10.0156H82.1445C82.3718 9.37642 82.7506 8.87216 83.2809 8.50284C83.8112 8.13352 84.4457 7.94886 85.1843 7.94886C85.9324 7.94886 86.5692 8.13589 87.0948 8.50994C87.6204 8.87926 87.9708 9.38116 88.146 10.0156H88.2596C88.4821 9.39062 88.8846 8.8911 89.467 8.51705C90.0541 8.13826 90.7478 7.94886 91.5479 7.94886C92.5659 7.94886 93.3922 8.2732 94.0266 8.92188C94.6658 9.56581 94.9854 10.4796 94.9854 11.6634V19H91.967V12.2599C91.967 11.6539 91.806 11.1993 91.484 10.8963C91.1621 10.5933 90.7596 10.4418 90.2766 10.4418C89.7274 10.4418 89.2989 10.617 88.9911 10.9673C88.6834 11.313 88.5295 11.7699 88.5295 12.3381V19H85.5962V12.196C85.5962 11.661 85.4424 11.2348 85.1346 10.9176C84.8316 10.6004 84.4315 10.4418 83.9343 10.4418C83.5981 10.4418 83.2951 10.527 83.0252 10.6974C82.7601 10.8632 82.5494 11.0975 82.3931 11.4006C82.2369 11.6989 82.1587 12.0492 82.1587 12.4517V19H79.1332ZM102.347 19.2131C101.225 19.2131 100.259 18.9858 99.4492 18.5312C98.6443 18.072 98.024 17.4233 97.5884 16.5852C97.1528 15.7424 96.935 14.7457 96.935 13.5952C96.935 12.473 97.1528 11.4882 97.5884 10.6406C98.024 9.79309 98.6372 9.13258 99.4279 8.65909C100.223 8.18561 101.156 7.94886 102.226 7.94886C102.946 7.94886 103.616 8.06487 104.236 8.29688C104.861 8.52415 105.406 8.86742 105.87 9.3267C106.338 9.78598 106.703 10.3636 106.963 11.0597C107.224 11.7509 107.354 12.5606 107.354 13.4886V14.3196H98.1424V12.4446H104.506C104.506 12.009 104.411 11.6231 104.222 11.2869C104.033 10.9508 103.77 10.688 103.434 10.4986C103.102 10.3045 102.716 10.2074 102.276 10.2074C101.817 10.2074 101.409 10.3139 101.054 10.527C100.704 10.7353 100.429 11.017 100.23 11.3722C100.032 11.7225 99.9298 12.1132 99.9251 12.544V14.3267C99.9251 14.8665 100.025 15.3329 100.223 15.7259C100.427 16.1188 100.713 16.4219 101.083 16.6349C101.452 16.848 101.89 16.9545 102.397 16.9545C102.733 16.9545 103.041 16.9072 103.32 16.8125C103.599 16.7178 103.838 16.5758 104.037 16.3864C104.236 16.197 104.388 15.965 104.492 15.6903L107.29 15.875C107.148 16.5473 106.857 17.1345 106.417 17.6364C105.981 18.1335 105.417 18.5218 104.726 18.8011C104.04 19.0758 103.247 19.2131 102.347 19.2131ZM112.944 4.45455L112.667 14.6392H110.067L109.783 4.45455H112.944ZM111.367 19.1847C110.898 19.1847 110.496 19.0189 110.159 18.6875C109.823 18.3513 109.658 17.9489 109.662 17.4801C109.658 17.0161 109.823 16.6184 110.159 16.2869C110.496 15.9555 110.898 15.7898 111.367 15.7898C111.817 15.7898 112.212 15.9555 112.553 16.2869C112.894 16.6184 113.067 17.0161 113.071 17.4801C113.067 17.7926 112.984 18.0791 112.823 18.3395C112.667 18.5952 112.461 18.8011 112.205 18.9574C111.949 19.1089 111.67 19.1847 111.367 19.1847ZM119.428 4.45455L119.151 14.6392H116.551L116.267 4.45455H119.428ZM117.851 19.1847C117.382 19.1847 116.98 19.0189 116.644 18.6875C116.308 18.3513 116.142 17.9489 116.147 17.4801C116.142 17.0161 116.308 16.6184 116.644 16.2869C116.98 15.9555 117.382 15.7898 117.851 15.7898C118.301 15.7898 118.696 15.9555 119.037 16.2869C119.378 16.6184 119.551 17.0161 119.556 17.4801C119.551 17.7926 119.468 18.0791 119.307 18.3395C119.151 18.5952 118.945 18.8011 118.689 18.9574C118.434 19.1089 118.154 19.1847 117.851 19.1847Z" fill="white"/>
<path d="M15.5916 39V38.5909C15.5916 38.4702 15.6143 38.343 15.6598 38.2095C15.7053 38.076 15.7685 37.9482 15.8494 37.826C15.9304 37.7038 16.0256 37.5994 16.1349 37.5128L16.4503 37.7386C16.3636 37.8651 16.2898 37.9972 16.2287 38.1349C16.1676 38.2727 16.1371 38.4226 16.1371 38.5845V39H15.5916ZM16.6783 39V38.5909C16.6783 38.4702 16.701 38.343 16.7464 38.2095C16.7919 38.076 16.8551 37.9482 16.9361 37.826C17.017 37.7038 17.1122 37.5994 17.2216 37.5128L17.5369 37.7386C17.4503 37.8651 17.3764 37.9972 17.3153 38.1349C17.2543 38.2727 17.2237 38.4226 17.2237 38.5845V39H16.6783ZM19.5483 42H18.1357V37.6364H19.593C20.0206 37.6364 20.3878 37.7237 20.6946 37.8984C21.0014 38.0717 21.2365 38.321 21.3999 38.6463C21.5646 38.9702 21.647 39.3587 21.647 39.8118C21.647 40.2663 21.5639 40.657 21.3977 40.9837C21.233 41.3104 20.9943 41.5618 20.6818 41.7379C20.3693 41.9126 19.9915 42 19.5483 42ZM18.794 41.4247H19.5121C19.8445 41.4247 20.1207 41.3622 20.3409 41.2372C20.5611 41.1108 20.7259 40.9283 20.8352 40.6896C20.9446 40.4496 20.9993 40.157 20.9993 39.8118C20.9993 39.4695 20.9446 39.179 20.8352 38.9403C20.7273 38.7017 20.5661 38.5206 20.3516 38.397C20.1371 38.2734 19.8707 38.2116 19.5526 38.2116H18.794V41.4247ZM22.4146 42V38.7273H23.0517V42H22.4146ZM22.7363 38.2223C22.6255 38.2223 22.5304 38.1854 22.4508 38.1115C22.3727 38.0362 22.3336 37.9467 22.3336 37.843C22.3336 37.7379 22.3727 37.6484 22.4508 37.5746C22.5304 37.4993 22.6255 37.4616 22.7363 37.4616C22.8471 37.4616 22.9416 37.4993 23.0197 37.5746C23.0993 37.6484 23.139 37.7379 23.139 37.843C23.139 37.9467 23.0993 38.0362 23.0197 38.1115C22.9416 38.1854 22.8471 38.2223 22.7363 38.2223ZM26.7085 38.7273L25.5217 42H24.8398L23.6509 38.7273H24.3349L25.1637 41.2457H25.1978L26.0245 38.7273H26.7085ZM27.3072 42V38.7273H27.9442V42H27.3072ZM27.6289 38.2223C27.5181 38.2223 27.4229 38.1854 27.3434 38.1115C27.2653 38.0362 27.2262 37.9467 27.2262 37.843C27.2262 37.7379 27.2653 37.6484 27.3434 37.5746C27.4229 37.4993 27.5181 37.4616 27.6289 37.4616C27.7397 37.4616 27.8342 37.4993 27.9123 37.5746C27.9918 37.6484 28.0316 37.7379 28.0316 37.843C28.0316 37.9467 27.9918 38.0362 27.9123 38.1115C27.8342 38.1854 27.7397 38.2223 27.6289 38.2223ZM30.2118 42.0661C29.8894 42.0661 29.6117 41.9972 29.3787 41.8594C29.1472 41.7202 28.9682 41.5249 28.8418 41.2734C28.7168 41.0206 28.6543 40.7244 28.6543 40.3849C28.6543 40.0497 28.7168 39.7543 28.8418 39.4986C28.9682 39.2429 29.1444 39.0433 29.3702 38.8999C29.5975 38.7564 29.8631 38.6847 30.1671 38.6847C30.3517 38.6847 30.5307 38.7152 30.704 38.7763C30.8773 38.8374 31.0328 38.9332 31.1706 39.0639C31.3084 39.1946 31.4171 39.3643 31.4966 39.5732C31.5762 39.7805 31.6159 40.0327 31.6159 40.3295V40.5554H29.0144V40.0781H30.9917C30.9917 39.9105 30.9576 39.7621 30.8894 39.6328C30.8212 39.5021 30.7253 39.3991 30.6017 39.3239C30.4796 39.2486 30.3361 39.2109 30.1713 39.2109C29.9924 39.2109 29.8361 39.255 29.7026 39.343C29.5705 39.4297 29.4682 39.5433 29.3958 39.6839C29.3248 39.8232 29.2892 39.9744 29.2892 40.1378V40.5107C29.2892 40.7294 29.3276 40.9155 29.4043 41.0689C29.4824 41.2223 29.5911 41.3395 29.7303 41.4205C29.8695 41.5 30.0321 41.5398 30.2182 41.5398C30.339 41.5398 30.449 41.5227 30.5485 41.4886C30.6479 41.4531 30.7338 41.4006 30.8063 41.331C30.8787 41.2614 30.9341 41.1754 30.9725 41.0732L31.5755 41.1818C31.5272 41.3594 31.4405 41.5149 31.3155 41.6484C31.1919 41.7805 31.0364 41.8835 30.8489 41.9574C30.6628 42.0298 30.4505 42.0661 30.2118 42.0661ZM32.3228 42V38.7273H32.9386V39.2472H32.9727C33.0323 39.071 33.1374 38.9325 33.288 38.8317C33.44 38.7294 33.6119 38.6783 33.8036 38.6783C33.8434 38.6783 33.8903 38.6797 33.9442 38.6825C33.9996 38.6854 34.043 38.6889 34.0742 38.6932V39.3026C34.0487 39.2955 34.0032 39.2876 33.9379 39.2791C33.8725 39.2692 33.8072 39.2642 33.7418 39.2642C33.5913 39.2642 33.457 39.2962 33.3391 39.3601C33.2227 39.4226 33.1303 39.5099 33.0621 39.6222C32.994 39.733 32.9599 39.8594 32.9599 40.0014V42H32.3228ZM36.3466 38.7273V39.2386H34.5589V38.7273H36.3466ZM35.0384 37.9432H35.6754V41.0391C35.6754 41.1626 35.6939 41.2557 35.7308 41.3182C35.7678 41.3793 35.8153 41.4212 35.8736 41.4439C35.9332 41.4652 35.9979 41.4759 36.0675 41.4759C36.1186 41.4759 36.1634 41.4723 36.2017 41.4652C36.2401 41.4581 36.2699 41.4524 36.2912 41.4482L36.4062 41.9744C36.3693 41.9886 36.3168 42.0028 36.2486 42.017C36.1804 42.0327 36.0952 42.0412 35.9929 42.0426C35.8253 42.0455 35.669 42.0156 35.5241 41.9531C35.3793 41.8906 35.2621 41.794 35.1726 41.6634C35.0831 41.5327 35.0384 41.3686 35.0384 41.1712V37.9432ZM38.4267 42.0661C38.1042 42.0661 37.8265 41.9972 37.5936 41.8594C37.362 41.7202 37.1831 41.5249 37.0566 41.2734C36.9316 41.0206 36.8691 40.7244 36.8691 40.3849C36.8691 40.0497 36.9316 39.7543 37.0566 39.4986C37.1831 39.2429 37.3592 39.0433 37.585 38.8999C37.8123 38.7564 38.0779 38.6847 38.3819 38.6847C38.5666 38.6847 38.7456 38.7152 38.9189 38.7763C39.0922 38.8374 39.2477 38.9332 39.3855 39.0639C39.5233 39.1946 39.6319 39.3643 39.7115 39.5732C39.791 39.7805 39.8308 40.0327 39.8308 40.3295V40.5554H37.2292V40.0781H39.2065C39.2065 39.9105 39.1724 39.7621 39.1042 39.6328C39.036 39.5021 38.9402 39.3991 38.8166 39.3239C38.6944 39.2486 38.551 39.2109 38.3862 39.2109C38.2072 39.2109 38.051 39.255 37.9174 39.343C37.7853 39.4297 37.6831 39.5433 37.6106 39.6839C37.5396 39.8232 37.5041 39.9744 37.5041 40.1378V40.5107C37.5041 40.7294 37.5424 40.9155 37.6191 41.0689C37.6973 41.2223 37.8059 41.3395 37.9451 41.4205C38.0843 41.5 38.247 41.5398 38.4331 41.5398C38.5538 41.5398 38.6639 41.5227 38.7633 41.4886C38.8627 41.4531 38.9487 41.4006 39.0211 41.331C39.0936 41.2614 39.149 41.1754 39.1873 41.0732L39.7903 41.1818C39.742 41.3594 39.6554 41.5149 39.5304 41.6484C39.4068 41.7805 39.2512 41.8835 39.0637 41.9574C38.8777 42.0298 38.6653 42.0661 38.4267 42.0661ZM42.0653 38.7273V39.2386H40.2777V38.7273H42.0653ZM40.7571 37.9432H41.3942V41.0391C41.3942 41.1626 41.4126 41.2557 41.4496 41.3182C41.4865 41.3793 41.5341 41.4212 41.5923 41.4439C41.652 41.4652 41.7166 41.4759 41.7862 41.4759C41.8374 41.4759 41.8821 41.4723 41.9205 41.4652C41.9588 41.4581 41.9886 41.4524 42.0099 41.4482L42.125 41.9744C42.0881 41.9886 42.0355 42.0028 41.9673 42.017C41.8991 42.0327 41.8139 42.0412 41.7116 42.0426C41.544 42.0455 41.3878 42.0156 41.2429 41.9531C41.098 41.8906 40.9808 41.794 40.8913 41.6634C40.8018 41.5327 40.7571 41.3686 40.7571 41.1712V37.9432ZM44.1454 42.0661C43.823 42.0661 43.5453 41.9972 43.3123 41.8594C43.0808 41.7202 42.9018 41.5249 42.7754 41.2734C42.6504 41.0206 42.5879 40.7244 42.5879 40.3849C42.5879 40.0497 42.6504 39.7543 42.7754 39.4986C42.9018 39.2429 43.0779 39.0433 43.3038 38.8999C43.5311 38.7564 43.7967 38.6847 44.1007 38.6847C44.2853 38.6847 44.4643 38.7152 44.6376 38.7763C44.8109 38.8374 44.9664 38.9332 45.1042 39.0639C45.242 39.1946 45.3507 39.3643 45.4302 39.5732C45.5098 39.7805 45.5495 40.0327 45.5495 40.3295V40.5554H42.948V40.0781H44.9252C44.9252 39.9105 44.8912 39.7621 44.823 39.6328C44.7548 39.5021 44.6589 39.3991 44.5353 39.3239C44.4132 39.2486 44.2697 39.2109 44.1049 39.2109C43.926 39.2109 43.7697 39.255 43.6362 39.343C43.5041 39.4297 43.4018 39.5433 43.3294 39.6839C43.2583 39.8232 43.2228 39.9744 43.2228 40.1378V40.5107C43.2228 40.7294 43.2612 40.9155 43.3379 41.0689C43.416 41.2223 43.5247 41.3395 43.6639 41.4205C43.8031 41.5 43.9657 41.5398 44.1518 41.5398C44.2725 41.5398 44.3826 41.5227 44.4821 41.4886C44.5815 41.4531 44.6674 41.4006 44.7399 41.331C44.8123 41.2614 44.8677 41.1754 44.9061 41.0732L45.5091 41.1818C45.4608 41.3594 45.3741 41.5149 45.2491 41.6484C45.1255 41.7805 44.97 41.8835 44.7825 41.9574C44.5964 42.0298 44.3841 42.0661 44.1454 42.0661ZM49.2228 42.0661C48.9061 42.0661 48.6333 41.9943 48.4047 41.8509C48.1774 41.706 48.0027 41.5064 47.8805 41.2521C47.7583 40.9979 47.6973 40.7067 47.6973 40.3786C47.6973 40.0462 47.7598 39.7528 47.8848 39.4986C48.0098 39.2429 48.1859 39.0433 48.4132 38.8999C48.6404 38.7564 48.9082 38.6847 49.2164 38.6847C49.465 38.6847 49.6866 38.7308 49.8812 38.8232C50.0758 38.9141 50.2328 39.0419 50.3521 39.2067C50.4728 39.3714 50.5446 39.5639 50.5673 39.7841H49.9473C49.9132 39.6307 49.835 39.4986 49.7129 39.3878C49.5922 39.277 49.4302 39.2216 49.2271 39.2216C49.0495 39.2216 48.894 39.2685 48.7605 39.3622C48.6284 39.4545 48.5254 39.5866 48.4515 39.7585C48.3777 39.929 48.3407 40.1307 48.3407 40.3636C48.3407 40.6023 48.377 40.8082 48.4494 40.9815C48.5218 41.1548 48.6241 41.2891 48.7562 41.3842C48.8897 41.4794 49.0467 41.527 49.2271 41.527C49.3478 41.527 49.4572 41.505 49.5552 41.4609C49.6547 41.4155 49.7377 41.3509 49.8045 41.267C49.8727 41.1832 49.9203 41.0824 49.9473 40.9645H50.5673C50.5446 41.1761 50.4757 41.3651 50.3606 41.5312C50.2456 41.6974 50.0914 41.8281 49.8983 41.9233C49.7065 42.0185 49.4814 42.0661 49.2228 42.0661ZM52.6271 42.0661C52.3203 42.0661 52.0526 41.9957 51.8239 41.8551C51.5952 41.7145 51.4176 41.5178 51.2912 41.2649C51.1648 41.0121 51.1016 40.7166 51.1016 40.3786C51.1016 40.0391 51.1648 39.7422 51.2912 39.4879C51.4176 39.2337 51.5952 39.0362 51.8239 38.8956C52.0526 38.755 52.3203 38.6847 52.6271 38.6847C52.9339 38.6847 53.2017 38.755 53.4304 38.8956C53.6591 39.0362 53.8366 39.2337 53.9631 39.4879C54.0895 39.7422 54.1527 40.0391 54.1527 40.3786C54.1527 40.7166 54.0895 41.0121 53.9631 41.2649C53.8366 41.5178 53.6591 41.7145 53.4304 41.8551C53.2017 41.9957 52.9339 42.0661 52.6271 42.0661ZM52.6293 41.5312C52.8281 41.5312 52.9929 41.4787 53.1236 41.3736C53.2543 41.2685 53.3509 41.1286 53.4134 40.9538C53.4773 40.7791 53.5092 40.5866 53.5092 40.3764C53.5092 40.1676 53.4773 39.9759 53.4134 39.8011C53.3509 39.625 53.2543 39.4837 53.1236 39.3771C52.9929 39.2706 52.8281 39.2173 52.6293 39.2173C52.429 39.2173 52.2628 39.2706 52.1307 39.3771C52 39.4837 51.9027 39.625 51.8388 39.8011C51.7763 39.9759 51.745 40.1676 51.745 40.3764C51.745 40.5866 51.7763 40.7791 51.8388 40.9538C51.9027 41.1286 52 41.2685 52.1307 41.3736C52.2628 41.4787 52.429 41.5312 52.6293 41.5312ZM55.5009 40.0568V42H54.8638V38.7273H55.4753V39.2599H55.5158C55.5911 39.0866 55.709 38.9474 55.8695 38.8423C56.0314 38.7372 56.2353 38.6847 56.481 38.6847C56.704 38.6847 56.8993 38.7315 57.0669 38.8253C57.2346 38.9176 57.3645 39.0554 57.4569 39.2386C57.5492 39.4219 57.5953 39.6484 57.5953 39.9183V42H56.9583V39.995C56.9583 39.7578 56.8965 39.5724 56.7729 39.4389C56.6493 39.304 56.4796 39.2365 56.2637 39.2365C56.1159 39.2365 55.9846 39.2685 55.8695 39.3324C55.7559 39.3963 55.6657 39.4901 55.5989 39.6136C55.5336 39.7358 55.5009 39.8835 55.5009 40.0568ZM60.0888 42V37.6364H61.6868C61.9964 37.6364 62.2528 37.6875 62.456 37.7898C62.6591 37.8906 62.8111 38.0277 62.9119 38.201C63.0128 38.3729 63.0632 38.5668 63.0632 38.7827C63.0632 38.9645 63.0298 39.1179 62.9631 39.2429C62.8963 39.3665 62.8068 39.4659 62.6946 39.5412C62.5838 39.6151 62.4616 39.669 62.3281 39.7031V39.7457C62.473 39.7528 62.6143 39.7997 62.7521 39.8864C62.8913 39.9716 63.0064 40.093 63.0973 40.2507C63.1882 40.4084 63.2337 40.6001 63.2337 40.826C63.2337 41.049 63.1811 41.2493 63.076 41.4268C62.9723 41.603 62.8118 41.7429 62.5945 41.8466C62.3771 41.9489 62.0994 42 61.7614 42H60.0888ZM60.7472 41.4354H61.6974C62.0128 41.4354 62.2386 41.3743 62.375 41.2521C62.5114 41.13 62.5795 40.9773 62.5795 40.794C62.5795 40.6562 62.5447 40.5298 62.4751 40.4148C62.4055 40.2997 62.3061 40.2081 62.1768 40.1399C62.049 40.0717 61.897 40.0376 61.7209 40.0376H60.7472V41.4354ZM60.7472 39.5241H61.6293C61.777 39.5241 61.9098 39.4957 62.0277 39.4389C62.147 39.3821 62.2415 39.3026 62.3111 39.2003C62.3821 39.0966 62.4176 38.9744 62.4176 38.8338C62.4176 38.6534 62.3544 38.5021 62.228 38.38C62.1016 38.2578 61.9077 38.1967 61.6463 38.1967H60.7472V39.5241ZM64.9158 42.0724C64.7085 42.0724 64.521 42.0341 64.3533 41.9574C64.1857 41.8793 64.0529 41.7663 63.9549 41.6186C63.8583 41.4709 63.81 41.2898 63.81 41.0753C63.81 40.8906 63.8455 40.7386 63.9165 40.6193C63.9876 40.5 64.0835 40.4055 64.2042 40.3359C64.3249 40.2663 64.4599 40.2138 64.609 40.1783C64.7582 40.1428 64.9102 40.1158 65.065 40.0973C65.261 40.0746 65.4201 40.0561 65.5423 40.0419C65.6644 40.0263 65.7532 40.0014 65.8086 39.9673C65.864 39.9332 65.8917 39.8778 65.8917 39.8011V39.7862C65.8917 39.6001 65.8391 39.456 65.734 39.3537C65.6303 39.2514 65.4755 39.2003 65.2695 39.2003C65.055 39.2003 64.886 39.2479 64.7624 39.343C64.6403 39.4368 64.5558 39.5412 64.5089 39.6562L63.9102 39.5199C63.9812 39.321 64.0849 39.1605 64.2212 39.0384C64.359 38.9148 64.5174 38.8253 64.6964 38.7699C64.8754 38.7131 65.0636 38.6847 65.261 38.6847C65.3917 38.6847 65.5302 38.7003 65.6765 38.7315C65.8242 38.7614 65.962 38.8168 66.0898 38.8977C66.2191 38.9787 66.3249 39.0945 66.4073 39.245C66.4897 39.3942 66.5309 39.5881 66.5309 39.8267V42H65.9087V41.5526H65.8832C65.842 41.6349 65.7802 41.7159 65.6978 41.7955C65.6154 41.875 65.5096 41.9411 65.3803 41.9936C65.2511 42.0462 65.0962 42.0724 64.9158 42.0724ZM65.0543 41.5611C65.2305 41.5611 65.381 41.5263 65.506 41.4567C65.6325 41.3871 65.7283 41.2962 65.7937 41.1839C65.8604 41.0703 65.8938 40.9489 65.8938 40.8196V40.3977C65.8711 40.4205 65.8271 40.4418 65.7617 40.4616C65.6978 40.4801 65.6246 40.4964 65.5423 40.5107C65.4599 40.5234 65.3796 40.5355 65.3015 40.5469C65.2234 40.5568 65.158 40.5653 65.1055 40.5724C64.9819 40.5881 64.869 40.6143 64.7667 40.6513C64.6658 40.6882 64.5849 40.7415 64.5238 40.8111C64.4641 40.8793 64.4343 40.9702 64.4343 41.0838C64.4343 41.2415 64.4925 41.3608 64.609 41.4418C64.7255 41.5213 64.8739 41.5611 65.0543 41.5611ZM67.3794 42V38.7273H67.9952V39.2472H68.0293C68.089 39.071 68.1941 38.9325 68.3446 38.8317C68.4966 38.7294 68.6685 38.6783 68.8603 38.6783C68.9 38.6783 68.9469 38.6797 69.0009 38.6825C69.0563 38.6854 69.0996 38.6889 69.1309 38.6932V39.3026C69.1053 39.2955 69.0598 39.2876 68.9945 39.2791C68.9292 39.2692 68.8638 39.2642 68.7985 39.2642C68.6479 39.2642 68.5137 39.2962 68.3958 39.3601C68.2793 39.4226 68.187 39.5099 68.1188 39.6222C68.0506 39.733 68.0165 39.8594 68.0165 40.0014V42H67.3794ZM70.3192 37.6364V42H69.6822V37.6364H70.3192ZM72.5549 42.0661C72.248 42.0661 71.9803 41.9957 71.7516 41.8551C71.5229 41.7145 71.3453 41.5178 71.2189 41.2649C71.0925 41.0121 71.0293 40.7166 71.0293 40.3786C71.0293 40.0391 71.0925 39.7422 71.2189 39.4879C71.3453 39.2337 71.5229 39.0362 71.7516 38.8956C71.9803 38.755 72.248 38.6847 72.5549 38.6847C72.8617 38.6847 73.1294 38.755 73.3581 38.8956C73.5868 39.0362 73.7644 39.2337 73.8908 39.4879C74.0172 39.7422 74.0804 40.0391 74.0804 40.3786C74.0804 40.7166 74.0172 41.0121 73.8908 41.2649C73.7644 41.5178 73.5868 41.7145 73.3581 41.8551C73.1294 41.9957 72.8617 42.0661 72.5549 42.0661ZM72.557 41.5312C72.7559 41.5312 72.9206 41.4787 73.0513 41.3736C73.182 41.2685 73.2786 41.1286 73.3411 40.9538C73.405 40.7791 73.437 40.5866 73.437 40.3764C73.437 40.1676 73.405 39.9759 73.3411 39.8011C73.2786 39.625 73.182 39.4837 73.0513 39.3771C72.9206 39.2706 72.7559 39.2173 72.557 39.2173C72.3567 39.2173 72.1905 39.2706 72.0584 39.3771C71.9277 39.4837 71.8304 39.625 71.7665 39.8011C71.704 39.9759 71.6728 40.1676 71.6728 40.3764C71.6728 40.5866 71.704 40.7791 71.7665 40.9538C71.8304 41.1286 71.9277 41.2685 72.0584 41.3736C72.1905 41.4787 72.3567 41.5312 72.557 41.5312ZM76.3192 38.7273V39.2386H74.5316V38.7273H76.3192ZM75.011 37.9432H75.6481V41.0391C75.6481 41.1626 75.6665 41.2557 75.7035 41.3182C75.7404 41.3793 75.788 41.4212 75.8462 41.4439C75.9059 41.4652 75.9705 41.4759 76.0401 41.4759C76.0913 41.4759 76.136 41.4723 76.1744 41.4652C76.2127 41.4581 76.2425 41.4524 76.2638 41.4482L76.3789 41.9744C76.342 41.9886 76.2894 42.0028 76.2212 42.017C76.1531 42.0327 76.0678 42.0412 75.9656 42.0426C75.7979 42.0455 75.6417 42.0156 75.4968 41.9531C75.3519 41.8906 75.2347 41.794 75.1452 41.6634C75.0558 41.5327 75.011 41.3686 75.011 41.1712V37.9432ZM78.3674 42.0661C78.0605 42.0661 77.7928 41.9957 77.5641 41.8551C77.3354 41.7145 77.1578 41.5178 77.0314 41.2649C76.905 41.0121 76.8418 40.7166 76.8418 40.3786C76.8418 40.0391 76.905 39.7422 77.0314 39.4879C77.1578 39.2337 77.3354 39.0362 77.5641 38.8956C77.7928 38.755 78.0605 38.6847 78.3674 38.6847C78.6742 38.6847 78.9419 38.755 79.1706 38.8956C79.3993 39.0362 79.5769 39.2337 79.7033 39.4879C79.8297 39.7422 79.8929 40.0391 79.8929 40.3786C79.8929 40.7166 79.8297 41.0121 79.7033 41.2649C79.5769 41.5178 79.3993 41.7145 79.1706 41.8551C78.9419 41.9957 78.6742 42.0661 78.3674 42.0661ZM78.3695 41.5312C78.5684 41.5312 78.7331 41.4787 78.8638 41.3736C78.9945 41.2685 79.0911 41.1286 79.1536 40.9538C79.2175 40.7791 79.2495 40.5866 79.2495 40.3764C79.2495 40.1676 79.2175 39.9759 79.1536 39.8011C79.0911 39.625 78.9945 39.4837 78.8638 39.3771C78.7331 39.2706 78.5684 39.2173 78.3695 39.2173C78.1692 39.2173 78.003 39.2706 77.8709 39.3771C77.7402 39.4837 77.6429 39.625 77.579 39.8011C77.5165 39.9759 77.4853 40.1676 77.4853 40.3764C77.4853 40.5866 77.5165 40.7791 77.579 40.9538C77.6429 41.1286 77.7402 41.2685 77.8709 41.3736C78.003 41.4787 78.1692 41.5312 78.3695 41.5312ZM82.5946 43.2273C82.4995 43.2273 82.4128 43.2195 82.3347 43.2038C82.2566 43.1896 82.1983 43.174 82.16 43.157L82.3134 42.6349C82.4299 42.6662 82.5336 42.6797 82.6245 42.6754C82.7154 42.6712 82.7956 42.6371 82.8652 42.5732C82.9363 42.5092 82.9988 42.4048 83.0527 42.2599L83.1316 42.0426L81.9341 38.7273H82.6159L83.4448 41.267H83.4789L84.3077 38.7273H84.9917L83.6429 42.4368C83.5804 42.6072 83.5009 42.7514 83.4043 42.8693C83.3077 42.9886 83.1926 43.0781 83.0591 43.1378C82.9256 43.1974 82.7708 43.2273 82.5946 43.2273ZM87.8153 40.0568V42H87.1783V37.6364H87.8068V39.2599H87.8473C87.924 39.0838 88.0412 38.9439 88.1989 38.8402C88.3565 38.7365 88.5625 38.6847 88.8168 38.6847C89.0412 38.6847 89.2372 38.7308 89.4048 38.8232C89.5739 38.9155 89.7045 39.0533 89.7969 39.2365C89.8906 39.4183 89.9375 39.6456 89.9375 39.9183V42H89.3004V39.995C89.3004 39.755 89.2386 39.5689 89.1151 39.4368C88.9915 39.3033 88.8196 39.2365 88.5994 39.2365C88.4489 39.2365 88.3139 39.2685 88.1946 39.3324C88.0767 39.3963 87.9837 39.4901 87.9155 39.6136C87.8487 39.7358 87.8153 39.8835 87.8153 40.0568ZM91.7401 42.0724C91.5327 42.0724 91.3452 42.0341 91.1776 41.9574C91.0099 41.8793 90.8771 41.7663 90.7791 41.6186C90.6825 41.4709 90.6342 41.2898 90.6342 41.0753C90.6342 40.8906 90.6697 40.7386 90.7408 40.6193C90.8118 40.5 90.9077 40.4055 91.0284 40.3359C91.1491 40.2663 91.2841 40.2138 91.4332 40.1783C91.5824 40.1428 91.7344 40.1158 91.8892 40.0973C92.0852 40.0746 92.2443 40.0561 92.3665 40.0419C92.4886 40.0263 92.5774 40.0014 92.6328 39.9673C92.6882 39.9332 92.7159 39.8778 92.7159 39.8011V39.7862C92.7159 39.6001 92.6634 39.456 92.5582 39.3537C92.4545 39.2514 92.2997 39.2003 92.0938 39.2003C91.8793 39.2003 91.7102 39.2479 91.5866 39.343C91.4645 39.4368 91.38 39.5412 91.3331 39.6562L90.7344 39.5199C90.8054 39.321 90.9091 39.1605 91.0455 39.0384C91.1832 38.9148 91.3416 38.8253 91.5206 38.7699C91.6996 38.7131 91.8878 38.6847 92.0852 38.6847C92.2159 38.6847 92.3544 38.7003 92.5007 38.7315C92.6484 38.7614 92.7862 38.8168 92.9141 38.8977C93.0433 38.9787 93.1491 39.0945 93.2315 39.245C93.3139 39.3942 93.3551 39.5881 93.3551 39.8267V42H92.733V41.5526H92.7074C92.6662 41.6349 92.6044 41.7159 92.522 41.7955C92.4396 41.875 92.3338 41.9411 92.2045 41.9936C92.0753 42.0462 91.9205 42.0724 91.7401 42.0724ZM91.8786 41.5611C92.0547 41.5611 92.2053 41.5263 92.3303 41.4567C92.4567 41.3871 92.5526 41.2962 92.6179 41.1839C92.6847 41.0703 92.718 40.9489 92.718 40.8196V40.3977C92.6953 40.4205 92.6513 40.4418 92.5859 40.4616C92.522 40.4801 92.4489 40.4964 92.3665 40.5107C92.2841 40.5234 92.2038 40.5355 92.1257 40.5469C92.0476 40.5568 91.9822 40.5653 91.9297 40.5724C91.8061 40.5881 91.6932 40.6143 91.5909 40.6513C91.4901 40.6882 91.4091 40.7415 91.348 40.8111C91.2884 40.8793 91.2585 40.9702 91.2585 41.0838C91.2585 41.2415 91.3168 41.3608 91.4332 41.4418C91.5497 41.5213 91.6982 41.5611 91.8786 41.5611ZM96.6561 39.5263L96.0787 39.6286C96.0545 39.5547 96.0162 39.4844 95.9636 39.4176C95.9125 39.3509 95.8429 39.2962 95.7548 39.2536C95.6667 39.2109 95.5566 39.1896 95.4245 39.1896C95.2441 39.1896 95.0936 39.2301 94.9728 39.3111C94.8521 39.3906 94.7917 39.4936 94.7917 39.62C94.7917 39.7294 94.8322 39.8175 94.9132 39.8842C94.9941 39.951 95.1248 40.0057 95.3052 40.0483L95.8251 40.1676C96.1262 40.2372 96.3507 40.3445 96.4984 40.4893C96.6461 40.6342 96.72 40.8224 96.72 41.054C96.72 41.25 96.6632 41.4247 96.5495 41.5781C96.4373 41.7301 96.2804 41.8494 96.0787 41.9361C95.8784 42.0227 95.6461 42.0661 95.3819 42.0661C95.0154 42.0661 94.7164 41.9879 94.4849 41.8317C94.2534 41.674 94.1113 41.4503 94.0588 41.1605L94.6745 41.0668C94.7129 41.2273 94.7917 41.3487 94.911 41.4311C95.0304 41.5121 95.1859 41.5526 95.3777 41.5526C95.5865 41.5526 95.7534 41.5092 95.8784 41.4226C96.0034 41.3345 96.0659 41.2273 96.0659 41.1009C96.0659 40.9986 96.0275 40.9126 95.9508 40.843C95.8755 40.7734 95.7598 40.7209 95.6035 40.6854L95.0495 40.5639C94.7441 40.4943 94.5183 40.3835 94.372 40.2315C94.2271 40.0795 94.1547 39.8871 94.1547 39.6541C94.1547 39.4609 94.2086 39.2919 94.3166 39.147C94.4245 39.0021 94.5737 38.8892 94.764 38.8082C94.9544 38.7259 95.1724 38.6847 95.4181 38.6847C95.7718 38.6847 96.0502 38.7614 96.2534 38.9148C96.4565 39.0668 96.5907 39.2706 96.6561 39.5263ZM98.9482 38.7273V39.2386H97.1605V38.7273H98.9482ZM97.6399 37.9432H98.277V41.0391C98.277 41.1626 98.2955 41.2557 98.3324 41.3182C98.3693 41.3793 98.4169 41.4212 98.4751 41.4439C98.5348 41.4652 98.5994 41.4759 98.669 41.4759C98.7202 41.4759 98.7649 41.4723 98.8033 41.4652C98.8416 41.4581 98.8714 41.4524 98.8928 41.4482L99.0078 41.9744C98.9709 41.9886 98.9183 42.0028 98.8501 42.017C98.782 42.0327 98.6967 42.0412 98.5945 42.0426C98.4268 42.0455 98.2706 42.0156 98.1257 41.9531C97.9808 41.8906 97.8636 41.794 97.7741 41.6634C97.6847 41.5327 97.6399 41.3686 97.6399 41.1712V37.9432ZM101.028 42.0661C100.706 42.0661 100.428 41.9972 100.195 41.8594C99.9636 41.7202 99.7846 41.5249 99.6582 41.2734C99.5332 41.0206 99.4707 40.7244 99.4707 40.3849C99.4707 40.0497 99.5332 39.7543 99.6582 39.4986C99.7846 39.2429 99.9608 39.0433 100.187 38.8999C100.414 38.7564 100.68 38.6847 100.983 38.6847C101.168 38.6847 101.347 38.7152 101.52 38.7763C101.694 38.8374 101.849 38.9332 101.987 39.0639C102.125 39.1946 102.233 39.3643 102.313 39.5732C102.393 39.7805 102.432 40.0327 102.432 40.3295V40.5554H99.8308V40.0781H101.808C101.808 39.9105 101.774 39.7621 101.706 39.6328C101.638 39.5021 101.542 39.3991 101.418 39.3239C101.296 39.2486 101.153 39.2109 100.988 39.2109C100.809 39.2109 100.653 39.255 100.519 39.343C100.387 39.4297 100.285 39.5433 100.212 39.6839C100.141 39.8232 100.106 39.9744 100.106 40.1378V40.5107C100.106 40.7294 100.144 40.9155 100.221 41.0689C100.299 41.2223 100.407 41.3395 100.547 41.4205C100.686 41.5 100.849 41.5398 101.035 41.5398C101.155 41.5398 101.265 41.5227 101.365 41.4886C101.464 41.4531 101.55 41.4006 101.623 41.331C101.695 41.2614 101.751 41.1754 101.789 41.0732L102.392 41.1818C102.344 41.3594 102.257 41.5149 102.132 41.6484C102.008 41.7805 101.853 41.8835 101.665 41.9574C101.479 42.0298 101.267 42.0661 101.028 42.0661ZM44.3476 44.6364H45.1466L46.5358 48.0284H46.5869L47.9761 44.6364H48.7751V49H48.1487V45.8423H48.1082L46.8213 48.9936H46.3014L45.0145 45.8402H44.974V49H44.3476V44.6364ZM49.6812 49V45.7273H50.3183V49H49.6812ZM50.0029 45.2223C49.8921 45.2223 49.797 45.1854 49.7174 45.1115C49.6393 45.0362 49.6002 44.9467 49.6002 44.843C49.6002 44.7379 49.6393 44.6484 49.7174 44.5746C49.797 44.4993 49.8921 44.4616 50.0029 44.4616C50.1137 44.4616 50.2082 44.4993 50.2863 44.5746C50.3659 44.6484 50.4056 44.7379 50.4056 44.843C50.4056 44.9467 50.3659 45.0362 50.2863 45.1115C50.2082 45.1854 50.1137 45.2223 50.0029 45.2223ZM51.8124 44.6364V49H51.1753V44.6364H51.8124ZM53.3066 44.6364V49H52.6695V44.6364H53.3066ZM55.5422 49.0661C55.2354 49.0661 54.9676 48.9957 54.7389 48.8551C54.5102 48.7145 54.3327 48.5178 54.2062 48.2649C54.0798 48.0121 54.0166 47.7166 54.0166 47.3786C54.0166 47.0391 54.0798 46.7422 54.2062 46.4879C54.3327 46.2337 54.5102 46.0362 54.7389 45.8956C54.9676 45.755 55.2354 45.6847 55.5422 45.6847C55.849 45.6847 56.1167 45.755 56.3454 45.8956C56.5741 46.0362 56.7517 46.2337 56.8781 46.4879C57.0045 46.7422 57.0677 47.0391 57.0677 47.3786C57.0677 47.7166 57.0045 48.0121 56.8781 48.2649C56.7517 48.5178 56.5741 48.7145 56.3454 48.8551C56.1167 48.9957 55.849 49.0661 55.5422 49.0661ZM55.5443 48.5312C55.7432 48.5312 55.9079 48.4787 56.0386 48.3736C56.1693 48.2685 56.2659 48.1286 56.3284 47.9538C56.3923 47.7791 56.4243 47.5866 56.4243 47.3764C56.4243 47.1676 56.3923 46.9759 56.3284 46.8011C56.2659 46.625 56.1693 46.4837 56.0386 46.3771C55.9079 46.2706 55.7432 46.2173 55.5443 46.2173C55.344 46.2173 55.1778 46.2706 55.0457 46.3771C54.915 46.4837 54.8177 46.625 54.7538 46.8011C54.6913 46.9759 54.6601 47.1676 54.6601 47.3764C54.6601 47.5866 54.6913 47.7791 54.7538 47.9538C54.8177 48.1286 54.915 48.2685 55.0457 48.3736C55.1778 48.4787 55.344 48.5312 55.5443 48.5312ZM58.4159 47.0568V49H57.7789V45.7273H58.3904V46.2599H58.4308C58.5061 46.0866 58.624 45.9474 58.7845 45.8423C58.9465 45.7372 59.1503 45.6847 59.396 45.6847C59.6191 45.6847 59.8144 45.7315 59.982 45.8253C60.1496 45.9176 60.2796 46.0554 60.3719 46.2386C60.4642 46.4219 60.5104 46.6484 60.5104 46.9183V49H59.8733V46.995C59.8733 46.7578 59.8115 46.5724 59.6879 46.4389C59.5644 46.304 59.3946 46.2365 59.1787 46.2365C59.031 46.2365 58.8996 46.2685 58.7845 46.3324C58.6709 46.3963 58.5807 46.4901 58.5139 46.6136C58.4486 46.7358 58.4159 46.8835 58.4159 47.0568ZM62.3172 49.0724C62.1098 49.0724 61.9223 49.0341 61.7547 48.9574C61.5871 48.8793 61.4543 48.7663 61.3563 48.6186C61.2597 48.4709 61.2114 48.2898 61.2114 48.0753C61.2114 47.8906 61.2469 47.7386 61.3179 47.6193C61.3889 47.5 61.4848 47.4055 61.6056 47.3359C61.7263 47.2663 61.8612 47.2138 62.0104 47.1783C62.1595 47.1428 62.3115 47.1158 62.4664 47.0973C62.6624 47.0746 62.8215 47.0561 62.9436 47.0419C63.0658 47.0263 63.1546 47.0014 63.21 46.9673C63.2654 46.9332 63.2931 46.8778 63.2931 46.8011V46.7862C63.2931 46.6001 63.2405 46.456 63.1354 46.3537C63.0317 46.2514 62.8769 46.2003 62.6709 46.2003C62.4564 46.2003 62.2874 46.2479 62.1638 46.343C62.0416 46.4368 61.9571 46.5412 61.9102 46.6562L61.3115 46.5199C61.3825 46.321 61.4862 46.1605 61.6226 46.0384C61.7604 45.9148 61.9188 45.8253 62.0977 45.7699C62.2767 45.7131 62.4649 45.6847 62.6624 45.6847C62.7931 45.6847 62.9316 45.7003 63.0779 45.7315C63.2256 45.7614 63.3634 45.8168 63.4912 45.8977C63.6205 45.9787 63.7263 46.0945 63.8087 46.245C63.8911 46.3942 63.9323 46.5881 63.9323 46.8267V49H63.3101V48.5526H63.2845C63.2433 48.6349 63.1816 48.7159 63.0992 48.7955C63.0168 48.875 62.911 48.9411 62.7817 48.9936C62.6524 49.0462 62.4976 49.0724 62.3172 49.0724ZM62.4557 48.5611C62.6318 48.5611 62.7824 48.5263 62.9074 48.4567C63.0338 48.3871 63.1297 48.2962 63.195 48.1839C63.2618 48.0703 63.2952 47.9489 63.2952 47.8196V47.3977C63.2725 47.4205 63.2284 47.4418 63.1631 47.4616C63.0992 47.4801 63.026 47.4964 62.9436 47.5107C62.8612 47.5234 62.781 47.5355 62.7029 47.5469C62.6247 47.5568 62.5594 47.5653 62.5068 47.5724C62.3833 47.5881 62.2703 47.6143 62.1681 47.6513C62.0672 47.6882 61.9862 47.7415 61.9252 47.8111C61.8655 47.8793 61.8357 47.9702 61.8357 48.0838C61.8357 48.2415 61.8939 48.3608 62.0104 48.4418C62.1269 48.5213 62.2753 48.5611 62.4557 48.5611ZM64.7808 49V45.7273H65.3966V46.2472H65.4307C65.4903 46.071 65.5954 45.9325 65.746 45.8317C65.898 45.7294 66.0699 45.6783 66.2616 45.6783C66.3014 45.6783 66.3483 45.6797 66.4023 45.6825C66.4577 45.6854 66.501 45.6889 66.5322 45.6932V46.3026C66.5067 46.2955 66.4612 46.2876 66.3959 46.2791C66.3305 46.2692 66.2652 46.2642 66.1998 46.2642C66.0493 46.2642 65.915 46.2962 65.7971 46.3601C65.6807 46.4226 65.5883 46.5099 65.5202 46.6222C65.452 46.733 65.4179 46.8594 65.4179 47.0014V49H64.7808ZM67.0835 49V45.7273H67.7206V49H67.0835ZM67.4053 45.2223C67.2945 45.2223 67.1993 45.1854 67.1198 45.1115C67.0416 45.0362 67.0026 44.9467 67.0026 44.843C67.0026 44.7379 67.0416 44.6484 67.1198 44.5746C67.1993 44.4993 67.2945 44.4616 67.4053 44.4616C67.5161 44.4616 67.6105 44.4993 67.6887 44.5746C67.7682 44.6484 67.808 44.7379 67.808 44.843C67.808 44.9467 67.7682 45.0362 67.6887 45.1115C67.6105 45.1854 67.5161 45.2223 67.4053 45.2223ZM69.9562 49.0661C69.6494 49.0661 69.3817 48.9957 69.153 48.8551C68.9243 48.7145 68.7467 48.5178 68.6203 48.2649C68.4939 48.0121 68.4307 47.7166 68.4307 47.3786C68.4307 47.0391 68.4939 46.7422 68.6203 46.4879C68.7467 46.2337 68.9243 46.0362 69.153 45.8956C69.3817 45.755 69.6494 45.6847 69.9562 45.6847C70.2631 45.6847 70.5308 45.755 70.7595 45.8956C70.9882 46.0362 71.1657 46.2337 71.2922 46.4879C71.4186 46.7422 71.4818 47.0391 71.4818 47.3786C71.4818 47.7166 71.4186 48.0121 71.2922 48.2649C71.1657 48.5178 70.9882 48.7145 70.7595 48.8551C70.5308 48.9957 70.2631 49.0661 69.9562 49.0661ZM69.9584 48.5312C70.1572 48.5312 70.322 48.4787 70.4527 48.3736C70.5834 48.2685 70.68 48.1286 70.7425 47.9538C70.8064 47.7791 70.8383 47.5866 70.8383 47.3764C70.8383 47.1676 70.8064 46.9759 70.7425 46.8011C70.68 46.625 70.5834 46.4837 70.4527 46.3771C70.322 46.2706 70.1572 46.2173 69.9584 46.2173C69.7581 46.2173 69.5919 46.2706 69.4598 46.3771C69.3291 46.4837 69.2318 46.625 69.1679 46.8011C69.1054 46.9759 69.0741 47.1676 69.0741 47.3764C69.0741 47.5866 69.1054 47.7791 69.1679 47.9538C69.2318 48.1286 69.3291 48.2685 69.4598 48.3736C69.5919 48.4787 69.7581 48.5312 69.9584 48.5312ZM72.7405 44.6364V45.0455C72.7405 45.1662 72.7178 45.2933 72.6723 45.4268C72.6283 45.5589 72.5658 45.6861 72.4848 45.8082C72.4039 45.9304 72.3087 46.0355 72.1993 46.1236L71.884 45.8977C71.9678 45.7756 72.0402 45.6456 72.1013 45.5078C72.1638 45.37 72.195 45.218 72.195 45.0518V44.6364H72.7405ZM73.825 44.6364V45.0455C73.825 45.1662 73.8023 45.2933 73.7568 45.4268C73.7128 45.5589 73.6503 45.6861 73.5693 45.8082C73.4884 45.9304 73.3932 46.0355 73.2838 46.1236L72.9685 45.8977C73.0523 45.7756 73.1247 45.6456 73.1858 45.5078C73.2483 45.37 73.2796 45.218 73.2796 45.0518V44.6364H73.825Z" fill="white"/>
</svg>
